<?xml version="1.0" encoding="utf-8"?>
<!-- Generator: Adobe Illustrator 27.0.1, SVG Export Plug-In . SVG Version: 6.00 Build 0)  -->
<svg version="1.1" id="Layer_1" xmlns="http://www.w3.org/2000/svg" xmlns:xlink="http://www.w3.org/1999/xlink" x="0px" y="0px"
	 viewBox="0 0 150 158.21" style="enable-background:new 0 0 150 158.21;" xml:space="preserve">
<style type="text/css">
	.st0{fill:#19696A;}
	.st1{fill:#6D9CC6;}
	.st2{fill:#6D9CC6;stroke:#1D1D1B;stroke-width:0.75;stroke-miterlimit:10;}
	.st3{fill:#8CD3D4;}
	.st4{fill:#A0E4CB;}
	.st5{fill:#59C1BD;}
	.st6{fill:#3C9E97;}
	.st7{fill:#CFF5E7;}
	.st8{fill:#7AC4A6;}
	.st9{fill:#75CCBE;}
	.st10{fill:#FFD8A8;}
	.st11{fill:#FD7E14;}
	.st12{fill:#FFC078;}
	.st13{fill:#FFA94D;}
	.st14{fill:#EF923F;}
	.st15{fill:#C92A2A;}
	.st16{fill:#FFC9C9;}
	.st17{fill:#FA5252;}
	.st18{fill:#FF8787;}
	.st19{fill:#F03E3E;}
	.st20{fill:#E03131;}
	.st21{fill:#FF6B6B;}
</style>
<g>
	<g>
		<polygon class="st0" points="17.35,120.51 18.31,119.07 32.53,97.11 45.67,97.11 45.67,95.31 45.67,87.48 45.67,85.68 
			43.78,85.68 2.93,85.68 1.04,85.68 1.04,87.48 1.04,88.2 1.04,95.31 1.04,97.11 13.9,97.11 0.5,118.35 0,119.14 0,120.51 
			1.94,120.51 16.06,120.51 		"/>
		<polygon class="st0" points="69.31,84.79 56.44,84.79 54.55,84.79 54.55,86.67 54.55,98.46 47.02,98.46 45.83,98.46 44.03,98.46 
			44.03,100.35 44.03,109.98 44.03,111.78 45.83,111.78 54.55,111.78 54.55,118.8 54.55,118.8 54.55,120.6 56.44,120.6 69.31,120.6 
			71.2,120.6 71.2,118.8 71.2,86.67 71.2,84.79 		"/>
		<path class="st0" d="M26.5,111.51c-0.01,0.01-0.01,0.02-0.01,0.03l-0.73,1.14l0.74,1.33l2.52,4.52l0.78,1.35h1.29h13.93h0.2h1.74
			v-1.36l-0.5-0.8l0,0l-10.42-17.19l-1.18-1.88l-1.25,1.88L26.5,111.51z"/>
		<polygon class="st0" points="56.44,125.01 54.55,125.01 54.55,126.81 54.55,130.95 26.03,130.95 24.18,130.95 24.14,132.75 
			24.14,139.13 24.14,141.02 26.03,141.02 54.55,141.02 54.55,147.23 21.44,147.23 21.44,126.81 21.44,125.01 19.64,125.01 
			6.68,125.01 4.88,125.01 4.88,126.81 4.88,128.72 4.88,155.96 4.88,155.96 4.88,157.76 6.68,157.76 69.31,157.76 71.2,157.76 
			71.2,155.96 71.2,126.81 71.2,125.01 69.31,125.01 		"/>
	</g>
	<g>
		<path class="st0" d="M81.75,86.58h-1.8v1.8v10.17v1.8h1.8h25.64c0,11.04-2.11,19.8-6.34,26.27c-4.23,6.48-10.36,11.01-18.4,13.59
			c-0.24,0.08-0.45,0.16-0.65,0.25l0-0.01c0,0-0.32,0.13-1.15,0.42v1.14v0.39v11.3v2.04c0.84-0.07,1.8-0.24,1.8-0.24
			c6.72-1.32,12.73-3.55,18.04-6.7c5.31-3.15,9.79-7.15,13.45-12.01c3.66-4.86,6.46-10.5,8.41-16.92
			c1.95-6.42,2.92-13.59,2.92-21.51v-9.9v-1.89h-1.89H81.75z"/>
		<polygon class="st0" points="147.8,84.79 134.93,84.79 133.04,84.79 133.04,86.67 133.04,156.41 133.04,158.21 134.93,158.21 
			147.8,158.21 149.69,158.21 149.69,156.41 149.69,86.67 149.69,84.79 		"/>
	</g>
	<g>
		<path class="st0" d="M50.03,16.02c0,2.76-0.08,5.62-0.22,8.59c-0.15,2.97-0.33,5.8-0.54,8.5c-0.21,2.7-0.45,5.14-0.72,7.33
			c-0.27,2.19-0.56,3.91-0.85,5.17c0,0-0.19,0.92-0.56,1.98l2.18,0h13.14l1.52,0c0,0,0.23-0.73,0.46-1.62
			c0.42-1.56,0.78-3.1,1.08-4.63c0.3-1.53,0.57-3.4,0.81-5.62c0.24-2.22,0.45-4.95,0.63-8.19c0.18-3.24,0.36-7.38,0.54-12.42
			l0.36-11.43c0.05-1.21,0.04-1.8,0.04-1.8h-1.93H4.41h-1.8v1.8v10.53v1.8h1.8H50.03z"/>
		<polygon class="st0" points="69.11,57.86 38.87,57.86 38.87,35.09 38.87,33.29 37.07,33.29 23.21,33.29 21.42,33.29 21.42,35.09 
			21.42,57.86 1.89,57.86 0,57.86 0,59.66 0,69.74 0,71.63 1.89,71.63 69.11,71.63 71,71.63 71,69.74 71,59.66 71,57.86 		"/>
	</g>
	<g>
		<polygon class="st0" points="125.43,41.57 125.43,39.77 125.43,3.15 125.43,1.35 123.55,1.35 80.35,1.35 78.55,1.35 78.55,3.24 
			78.55,12.06 78.55,13.86 80.35,13.86 109.24,13.86 109.24,29.06 95.65,29.06 95.65,18.36 95.65,16.56 93.76,16.56 81.34,16.56 
			79.45,16.56 79.45,18.35 79.45,18.36 79.45,39.77 79.45,41.57 81.34,41.57 123.55,41.57 		"/>
		<polygon class="st0" points="147.3,49.04 149.19,49.04 149.19,47.24 149.19,1.89 149.19,0 147.3,0 134.43,0 132.54,0 132.54,1.89 
			132.54,47.24 132.54,49.04 134.43,49.04 		"/>
		<polygon class="st0" points="148.29,58.13 100.24,58.13 100.24,50.75 100.24,48.95 98.35,48.95 84.76,48.95 82.96,48.95 
			82.96,50.75 82.96,70.73 82.96,72.53 84.76,72.53 148.29,72.53 150,72.53 150,70.73 150,59.93 150,58.13 		"/>
	</g>
</g>
</svg>
