<?xml version="1.0" encoding="utf-8"?>
<!-- Generator: Adobe Illustrator 27.0.1, SVG Export Plug-In . SVG Version: 6.00 Build 0)  -->
<svg version="1.1" id="Layer_1" xmlns="http://www.w3.org/2000/svg" xmlns:xlink="http://www.w3.org/1999/xlink" x="0px" y="0px"
	 viewBox="0 0 328.79 80" style="enable-background:new 0 0 328.79 80;" xml:space="preserve">
<style type="text/css">
	.st0{fill:#19696A;}
	.st1{fill:#6D9CC6;}
	.st2{fill:#6D9CC6;stroke:#1D1D1B;stroke-width:0.75;stroke-miterlimit:10;}
	.st3{fill:#8CD3D4;}
	.st4{fill:#A0E4CB;}
	.st5{fill:#59C1BD;}
	.st6{fill:#3C9E97;}
	.st7{fill:#CFF5E7;}
	.st8{fill:#7AC4A6;}
	.st9{fill:#75CCBE;}
	.st10{fill:#FFD8A8;}
	.st11{fill:#FD7E14;}
	.st12{fill:#FFC078;}
	.st13{fill:#FFA94D;}
	.st14{fill:#EF923F;}
	.st15{fill:#C92A2A;}
	.st16{fill:#FFC9C9;}
	.st17{fill:#FA5252;}
	.st18{fill:#FF8787;}
	.st19{fill:#F03E3E;}
	.st20{fill:#E03131;}
	.st21{fill:#FF6B6B;}
</style>
<g>
	<g>
		<path class="st0" d="M54.18,17.34c0,2.99-0.08,6.09-0.24,9.31c-0.16,3.22-0.36,6.29-0.58,9.21c-0.23,2.92-0.49,5.57-0.78,7.94
			c-0.29,2.37-0.6,4.24-0.93,5.6c0,0-0.21,0.99-0.6,2.15l2.36,0h14.23l1.65,0.01c0,0,0.25-0.79,0.5-1.76
			c0.45-1.69,0.84-3.36,1.17-5.02c0.32-1.66,0.62-3.69,0.88-6.09c0.26-2.4,0.49-5.36,0.68-8.87c0.19-3.51,0.39-7.99,0.59-13.45
			L73.47,4c0.05-1.31,0.04-1.95,0.04-1.95h-2.09H4.78H2.83V4v11.4v1.95h1.95H54.18z"/>
		<polygon class="st0" points="74.84,62.66 42.09,62.66 42.09,38 42.09,36.05 40.15,36.05 25.14,36.05 23.19,36.05 23.19,38 
			23.19,62.66 2.05,62.66 0,62.66 0,64.6 0,75.52 0,77.56 2.05,77.56 74.84,77.56 76.88,77.56 76.88,75.52 76.88,64.6 76.88,62.66 
					"/>
	</g>
	<g>
		<polygon class="st0" points="135.83,45.02 135.83,43.07 135.83,3.41 135.83,1.46 133.79,1.46 87.02,1.46 85.07,1.46 85.07,3.51 
			85.07,13.06 85.07,15.01 87.02,15.01 118.29,15.01 118.29,31.47 103.58,31.47 103.58,19.88 103.58,17.93 101.53,17.93 
			88.09,17.93 86.04,17.93 86.04,19.87 86.04,19.88 86.04,43.07 86.04,45.02 88.09,45.02 133.79,45.02 		"/>
		<polygon class="st0" points="159.51,53.11 161.56,53.11 161.56,51.16 161.56,2.05 161.56,0 159.51,0 145.58,0 143.53,0 
			143.53,2.05 143.53,51.16 143.53,53.11 145.58,53.11 		"/>
		<polygon class="st0" points="160.58,62.95 108.55,62.95 108.55,54.96 108.55,53.01 106.5,53.01 91.79,53.01 89.84,53.01 
			89.84,54.96 89.84,76.59 89.84,78.54 91.79,78.54 160.58,78.54 162.44,78.54 162.44,76.59 162.44,64.9 162.44,62.95 		"/>
	</g>
	<polygon class="st0" points="190.2,39.17 191.24,37.61 206.64,13.84 220.86,13.84 220.86,11.89 220.86,3.41 220.86,1.46 
		218.82,1.46 174.58,1.46 172.53,1.46 172.53,3.41 172.53,4.19 172.53,11.89 172.53,13.84 186.47,13.84 171.95,36.83 171.41,37.7 
		171.41,39.17 173.51,39.17 188.81,39.17 	"/>
	<path class="st0" d="M200.11,29.43c-0.01,0.01-0.01,0.02-0.02,0.03l-0.79,1.24l0.8,1.44l2.73,4.89l0.84,1.46h1.4h15.08h0.21h1.88
		v-1.48l-0.54-0.86l0,0l-11.28-18.61l-1.28-2.04l-1.35,2.04L200.11,29.43z"/>
	<polyline class="st0" points="248.51,61.78 248.51,45.99 248.51,44.04 246.47,44.04 232.53,44.04 230.49,44.04 230.49,45.99 
		230.49,50.48 199.6,50.48 197.59,50.48 197.55,52.42 197.55,59.34 197.55,61.39 199.6,61.39 230.49,61.39 230.49,68.11 	"/>
	<polygon class="st3" points="326.75,0.49 312.81,0.49 310.77,0.49 310.77,2.53 310.77,78.05 310.77,80 312.81,80 326.75,80 
		328.79,80 328.79,78.05 328.79,2.53 328.79,0.49 	"/>
	<polygon class="st0" points="220.86,1.46 220.86,13.84 206.64,13.84 190.2,39.17 171.41,39.17 171.41,37.7 186.47,13.84 
		194.36,1.46 	"/>
	<polygon class="st0" points="219.09,15.3 230.49,15.3 248.51,29.67 248.51,39.27 230.49,39.27 230.49,29.72 219.09,29.72 	"/>
	<polyline class="st0" points="176.7,44.04 194.63,44.04 194.63,68.11 230.49,68.11 230.49,61.39 197.55,61.39 197.59,50.48 
		230.49,50.48 248.51,61.78 248.51,68.11 230.58,79.51 194.68,79.51 176.7,69.36 	"/>
	<polygon class="st0" points="253.27,2.44 253.27,17.34 282.99,17.34 282.99,79.03 302.58,79.03 302.58,17.83 282.89,2.53 	"/>
	<polygon class="st0" points="220.86,1.46 220.86,13.84 206.64,13.84 213.75,1.46 	"/>
	<rect x="219.09" y="15.3" class="st3" width="11.4" height="14.42"/>
	<polygon class="st0" points="186.47,13.84 213.75,1.46 172.53,1.46 172.53,13.84 	"/>
	<polygon class="st3" points="230.49,50.48 230.49,61.39 197.55,61.39 197.59,50.48 	"/>
	<polygon class="st3" points="230.49,68.11 230.58,79.51 194.68,79.51 194.63,68.11 	"/>
	<polygon class="st3" points="282.99,17.34 282.89,2.53 253.27,2.44 253.27,17.34 	"/>
</g>
</svg>
