<svg width="150" height="159" viewBox="0 0 150 159" fill="none" xmlns="http://www.w3.org/2000/svg">
<g clip-path="url(#clip0_1687_8051)">
<path d="M17.35 120.51L18.31 119.07L32.53 97.1102H45.67V95.3102V87.4802V85.6802H43.78H2.93H1.04V87.4802V88.2002V95.3102V97.1102H13.9L0.5 118.35L0 119.14V120.51H1.94H16.06H17.35Z" fill="#E9F3F2"/>
<path d="M69.3103 84.79H56.4403H54.5503V86.67V98.46H47.0203H45.8303H44.0303V100.35V109.98V111.78H45.8303H54.5503V118.8V120.6H56.4403H69.3103H71.2003V118.8V86.67V84.79H69.3103Z" fill="#E9F3F2"/>
<path d="M26.4998 111.51C26.4898 111.52 26.4898 111.53 26.4898 111.54L25.7598 112.68L26.4998 114.01L29.0198 118.53L29.7998 119.88H31.0898H45.0198H45.2198H46.9598V118.52L46.4598 117.72L36.0398 100.53L34.8598 98.6499L33.6098 100.53L26.4998 111.51Z" fill="#E9F3F2"/>
<path d="M56.4399 125.01H54.5499V126.81V130.95H26.0299H24.1799L24.1399 132.75V139.13V141.02H26.0299H54.5499V147.23H21.4399V126.81V125.01H19.6399H6.67988H4.87988V126.81V128.72V155.96V157.76H6.67988H69.3099H71.1999V155.96V126.81V125.01H69.3099H56.4399Z" fill="#E9F3F2"/>
<path d="M81.7502 86.5798H79.9502V88.3798V98.5498V100.35H81.7502H107.39C107.39 111.39 105.28 120.15 101.05 126.62C96.8202 133.1 90.6902 137.63 82.6502 140.21C82.4102 140.29 82.2002 140.37 82.0002 140.46V140.45C82.0002 140.45 81.6802 140.58 80.8502 140.87V142.01V142.4V153.7V155.74C81.6902 155.67 82.6502 155.5 82.6502 155.5C89.3702 154.18 95.3802 151.95 100.69 148.8C106 145.65 110.48 141.65 114.14 136.79C117.8 131.93 120.6 126.29 122.55 119.87C124.5 113.45 125.47 106.28 125.47 98.3598V88.4598V86.5698H123.58H81.7502V86.5798Z" fill="#E9F3F2"/>
<path d="M147.8 84.79H134.93H133.04V86.67V156.41V158.21H134.93H147.8H149.69V156.41V86.67V84.79H147.8Z" fill="#E9F3F2"/>
<path d="M50.0303 16.0199C50.0303 18.7799 49.9504 21.6399 49.8104 24.6099C49.6604 27.5799 49.4804 30.4099 49.2704 33.1099C49.0604 35.8099 48.8204 38.2499 48.5504 40.4399C48.2804 42.6299 47.9904 44.3499 47.7004 45.6099C47.7004 45.6099 47.5104 46.5299 47.1404 47.5899H49.3204H62.4604H63.9804C63.9804 47.5899 64.2104 46.8599 64.4404 45.9699C64.8604 44.4099 65.2203 42.8699 65.5203 41.3399C65.8203 39.8099 66.0904 37.9399 66.3304 35.7199C66.5704 33.4999 66.7804 30.7699 66.9604 27.5299C67.1404 24.2899 67.3204 20.1499 67.5004 15.1099L67.8604 3.67988C67.9104 2.46988 67.9004 1.87988 67.9004 1.87988H65.9704H4.41035H2.61035V3.67988V14.2099V16.0099H4.41035H50.0303V16.0199Z" fill="#E9F3F2"/>
<path d="M69.11 57.86H38.87V35.09V33.29H37.07H23.21H21.42V35.09V57.86H1.89H0V59.66V69.74V71.63H1.89H69.11H71V69.74V59.66V57.86H69.11Z" fill="#E9F3F2"/>
<path d="M125.43 41.5701V39.7701V3.1501V1.3501H123.55H80.3498H78.5498V3.2401V12.0601V13.8601H80.3498H109.24V29.0601H95.6498V18.3601V16.5601H93.7598H81.3398H79.4498V18.3501V18.3601V39.7701V41.5701H81.3398H123.55H125.43Z" fill="#E9F3F2"/>
<path d="M147.3 49.04H149.19V47.24V1.89V0H147.3H134.43H132.54V1.89V47.24V49.04H134.43H147.3Z" fill="#E9F3F2"/>
<path d="M148.29 58.1302H100.24V50.7502V48.9502H98.35H84.76H82.96V50.7502V70.7302V72.5302H84.76H148.29H150V70.7302V59.9302V58.1302H148.29Z" fill="#E9F3F2"/>
</g>
<defs>
<clipPath id="clip0_1687_8051">
<rect width="150" height="158.21" fill="white"/>
</clipPath>
</defs>
</svg>
