<?xml version="1.0" encoding="utf-8"?>
<!-- Generator: Adobe Illustrator 27.0.1, SVG Export Plug-In . SVG Version: 6.00 Build 0)  -->
<svg version="1.1" id="Layer_1" xmlns="http://www.w3.org/2000/svg" xmlns:xlink="http://www.w3.org/1999/xlink" x="0px" y="0px"
	 viewBox="0 0 300 193.49" style="enable-background:new 0 0 300 193.49;" xml:space="preserve">
<style type="text/css">
	.st0{fill:#19696A;}
	.st1{fill:#6D9CC6;}
	.st2{fill:#6D9CC6;stroke:#1D1D1B;stroke-width:0.75;stroke-miterlimit:10;}
	.st3{fill:#8CD3D4;}
	.st4{fill:#A0E4CB;}
	.st5{fill:#59C1BD;}
	.st6{fill:#3C9E97;}
	.st7{fill:#CFF5E7;}
	.st8{fill:#7AC4A6;}
	.st9{fill:#75CCBE;}
	.st10{fill:#FFD8A8;}
	.st11{fill:#FD7E14;}
	.st12{fill:#FFC078;}
	.st13{fill:#FFA94D;}
	.st14{fill:#EF923F;}
	.st15{fill:#C92A2A;}
	.st16{fill:#FFC9C9;}
	.st17{fill:#FA5252;}
	.st18{fill:#FF8787;}
	.st19{fill:#F03E3E;}
	.st20{fill:#E03131;}
	.st21{fill:#FF6B6B;}
</style>
<g>
	<g>
		<polygon class="st0" points="173.5,157.54 174.42,156.17 187.98,135.23 200.51,135.23 200.51,133.51 200.51,126.05 200.51,124.33 
			198.71,124.33 159.75,124.33 157.95,124.33 157.95,126.05 157.95,126.73 157.95,133.51 157.95,135.23 170.22,135.23 
			157.43,155.48 156.96,156.24 156.96,157.54 158.81,157.54 172.28,157.54 		"/>
		<polygon class="st0" points="223.06,123.47 210.78,123.47 208.98,123.47 208.98,125.28 208.98,136.52 201.8,136.52 200.66,136.52 
			198.94,136.52 198.94,138.32 198.94,147.5 198.94,149.22 200.66,149.22 208.98,149.22 208.98,155.91 208.98,155.91 208.98,157.62 
			210.78,157.62 223.06,157.62 224.86,157.62 224.86,155.91 224.86,125.28 224.86,123.47 		"/>
		<path class="st0" d="M182.23,148.96c-0.01,0.01-0.01,0.02-0.01,0.03l-0.7,1.09l0.71,1.27l2.4,4.31l0.74,1.29h1.23h13.28h0.19h1.66
			v-1.3l-0.47-0.76l0,0l-9.94-16.39l-1.12-1.79l-1.19,1.79L182.23,148.96z"/>
		<polygon class="st0" points="210.78,161.83 208.98,161.83 208.98,163.55 208.98,167.49 181.78,167.49 180.01,167.49 
			179.98,169.21 179.98,175.3 179.98,177.1 181.78,177.1 208.98,177.1 208.98,183.02 177.4,183.02 177.4,163.55 177.4,161.83 
			175.69,161.83 163.33,161.83 161.62,161.83 161.62,163.55 161.62,165.37 161.62,191.35 161.62,191.35 161.62,193.06 
			163.33,193.06 223.06,193.06 224.86,193.06 224.86,191.35 224.86,163.55 224.86,161.83 223.06,161.83 		"/>
	</g>
	<g>
		<path class="st0" d="M234.92,125.19h-1.72v1.72v9.7v1.72h1.72h24.45c0,10.53-2.02,18.88-6.05,25.06
			c-4.03,6.18-9.88,10.5-17.55,12.96c-0.23,0.08-0.43,0.16-0.62,0.24l0-0.01c0,0-0.31,0.12-1.1,0.4v1.09v0.38v10.78v1.94
			c0.8-0.06,1.72-0.23,1.72-0.23c6.41-1.26,12.14-3.39,17.2-6.39c5.06-3,9.34-6.82,12.83-11.46c3.49-4.63,6.16-10.01,8.02-16.13
			c1.86-6.12,2.79-12.96,2.79-20.51v-9.44v-1.8h-1.8H234.92z"/>
		<polygon class="st0" points="297.9,123.47 285.63,123.47 283.83,123.47 283.83,125.28 283.83,191.78 283.83,193.49 285.63,193.49 
			297.9,193.49 299.7,193.49 299.7,191.78 299.7,125.28 299.7,123.47 		"/>
	</g>
	<g>
		<path class="st0" d="M204.67,57.89c0,2.63-0.07,5.36-0.21,8.19c-0.14,2.83-0.31,5.53-0.51,8.11c-0.2,2.57-0.43,4.91-0.69,6.99
			c-0.26,2.09-0.53,3.73-0.82,4.93c0,0-0.18,0.87-0.53,1.89l2.07,0h12.53l1.45,0c0,0,0.22-0.7,0.44-1.55
			c0.4-1.49,0.74-2.96,1.03-4.42c0.29-1.46,0.54-3.25,0.77-5.36c0.23-2.12,0.43-4.72,0.6-7.81c0.17-3.09,0.34-7.04,0.52-11.84
			l0.34-10.9c0.04-1.15,0.04-1.72,0.04-1.72h-1.84h-58.69h-1.72v1.72v10.04v1.72h1.72H204.67z"/>
		<polygon class="st0" points="222.86,97.8 194.03,97.8 194.03,76.09 194.03,74.37 192.31,74.37 179.1,74.37 177.38,74.37 
			177.38,76.09 177.38,97.8 158.76,97.8 156.96,97.8 156.96,99.51 156.96,109.12 156.96,110.92 158.76,110.92 222.86,110.92 
			224.66,110.92 224.66,109.12 224.66,99.51 224.66,97.8 		"/>
	</g>
	<g>
		<polygon class="st0" points="276.57,82.26 276.57,80.55 276.57,45.62 276.57,43.91 274.77,43.91 233.58,43.91 231.87,43.91 
			231.87,45.71 231.87,54.12 231.87,55.84 233.58,55.84 261.13,55.84 261.13,70.34 248.17,70.34 248.17,60.13 248.17,58.41 
			246.37,58.41 234.53,58.41 232.73,58.41 232.73,60.12 232.73,60.13 232.73,80.55 232.73,82.26 234.53,82.26 274.77,82.26 		"/>
		<polygon class="st0" points="297.43,89.39 299.23,89.39 299.23,87.67 299.23,44.42 299.23,42.62 297.43,42.62 285.15,42.62 
			283.35,42.62 283.35,44.42 283.35,87.67 283.35,89.39 285.15,89.39 		"/>
		<polygon class="st0" points="298.37,98.05 252.55,98.05 252.55,91.02 252.55,89.3 250.75,89.3 237.79,89.3 236.07,89.3 
			236.07,91.02 236.07,110.07 236.07,111.78 237.79,111.78 298.37,111.78 300,111.78 300,110.07 300,99.77 300,98.05 		"/>
	</g>
	<g>
		<polygon class="st0" points="117.28,0 24.67,92.93 117.28,185.29 		"/>
		<polygon class="st3" points="181.05,0 117.28,0 117.28,64.82 		"/>
		<polygon class="st3" points="58.59,58.9 24.35,24.67 24.67,92.93 		"/>
		<polygon class="st0" points="0,50.48 24.47,50.48 24.35,24.67 		"/>
	</g>
</g>
</svg>
