<?xml version="1.0" encoding="utf-8"?>
<!-- Generator: Adobe Illustrator 27.0.1, SVG Export Plug-In . SVG Version: 6.00 Build 0)  -->
<svg version="1.1" xmlns="http://www.w3.org/2000/svg" xmlns:xlink="http://www.w3.org/1999/xlink" x="0px" y="0px"
	 viewBox="0 0 119.3 200" style="enable-background:new 0 0 119.3 200;" xml:space="preserve">
<style type="text/css">
	.st0{fill:#19696A;}
	.st1{fill:#8CD3D4;}
	.st2{fill:#3F3F3F;}
	.st3{fill:#A0A0A0;}
	.st4{fill:#9B8787;}
	.st5{fill:#1D1D1B;}
	.st6{fill:#111E28;stroke:#1D1D1B;stroke-width:0.75;stroke-miterlimit:10;}
	.st7{fill:#6D9CC6;}
	.st8{fill:#6D9CC6;stroke:#1D1D1B;stroke-width:0.75;stroke-miterlimit:10;}
	.st9{fill:#A7EFF0;}
	.st10{fill:#A0E4CB;}
	.st11{fill:#59C1BD;}
	.st12{fill:#3C9E97;}
	.st13{fill:#CFF5E7;}
	.st14{fill:#7AC4A6;}
	.st15{fill:#75CCBE;}
	.st16{fill:#FFD8A8;}
	.st17{fill:#FD7E14;}
	.st18{fill:#FFC078;}
	.st19{fill:#FFA94D;}
	.st20{fill:#EF923F;}
	.st21{fill:#C92A2A;}
	.st22{fill:#FFC9C9;}
	.st23{fill:#FA5252;}
	.st24{fill:#FF8787;}
	.st25{fill:#F03E3E;}
	.st26{fill:#E03131;}
	.st27{fill:#FF6B6B;}
	.st28{fill:none;stroke:#BB8B8B;stroke-miterlimit:10;}
	.st29{fill:none;stroke:#B78989;stroke-miterlimit:10;}
	.st30{fill:none;stroke:#BF8E8E;stroke-miterlimit:10;}
	.st31{fill:none;stroke:#B38787;stroke-miterlimit:10;}
	.st32{fill:#E36BAE;}
	.st33{fill:#CC54A1;}
	.st34{fill:#BF4B9C;}
	.st35{fill:#B34180;}
	.st36{fill:#F8A1D1;}
	.st37{fill:#822659;}
	.st38{fill:#ED85C3;}
	.st39{fill:#DD85B9;}
	.st40{fill:#9B3270;}
	.st41{fill:#EFCF8F;}
	.st42{fill:#A44A4A;}
	.st43{fill:#DD8968;}
	.st44{fill:#E5B580;}
	.st45{fill:#E2AA79;}
	.st46{fill:#B2664F;}
	.st47{fill:#C6745C;}
	.st48{fill:#C8B6E2;}
	.st49{fill:#495C83;}
	.st50{fill:#7A86B6;}
	.st51{fill:#A8A4CE;}
	.st52{fill:#A9D2FF;}
	.st53{fill:#5D46C1;}
	.st54{fill:#7984EE;}
	.st55{fill:#88C0F2;}
	.st56{fill:#779BE0;}
	.st57{fill:#69ADE0;}
	.st58{fill:#6170DB;}
	.st59{fill:none;}
	.st60{fill:#4A6363;}
	.st61{fill:#895C5C;}
	.st62{fill:#A77979;}
	.st63{fill:#704F4F;}
	.st64{fill:#B58C8C;}
	.st65{fill:#C49F9F;}
	.st66{fill:#472D2D;}
	.st67{fill:#996B6B;}
	.st68{fill:#5B3F3F;}
	.st69{fill:#553939;}
	.st70{fill:#724747;}
	.st71{fill:#E3C2F9;}
	.st72{fill:#D89CF6;}
	.st73{fill:#916DD5;}
	.st74{fill:#5D499B;}
	.st75{fill:#C088E2;}
	.st76{fill:#6B54B5;}
	.st77{fill:#7D60C6;}
	.st78{fill:#3E206D;}
	.st79{fill:#E9D2FC;}
	.st80{fill:#DDA9FC;}
	.st81{fill:#EF9B59;}
	.st82{fill:#FEE785;}
	.st83{fill:#F7A76F;}
	.st84{fill:#A42127;}
	.st85{fill:#EFB773;}
	.st86{fill:#AF573C;}
	.st87{fill:#FFF0B3;}
	.st88{fill:#BC704A;}
	.st89{fill:#CE7F49;}
	.st90{fill:#CC6748;}
	.st91{fill:#DD8950;}
	.st92{fill:#E08B51;}
	.st93{fill:#FFEBB8;}
	.st94{fill:#DB8952;}
	.st95{fill:#B23838;}
	.st96{fill:#C83B3B;}
	.st97{fill:#C67B47;}
	.st98{fill:#AF3A2E;}
	.st99{fill:#932121;}
	.st100{fill:#F7AD7C;}
	.st101{fill:none;stroke:#F7AD7C;stroke-miterlimit:10;}
	.st102{opacity:0.9;fill:#FFFFFF;}
	.st103{opacity:0.9;fill:#FF9500;}
	.st104{opacity:0.9;fill:#FFA200;}
	.st105{opacity:0.9;fill:#FFD000;}
	.st106{opacity:0.9;fill:#FFC300;}
	.st107{opacity:0.9;fill:#FFB700;}
	.st108{opacity:0.9;fill:#FFEA00;}
	.st109{opacity:0.9;fill:#FF8800;}
	.st110{opacity:0.9;fill:#FF7B00;}
	.st111{opacity:0.9;fill:#FFF388;}
	.st112{opacity:0.9;fill:#FFE98D;}
	.st113{opacity:0.9;fill:#FF9C39;}
	.st114{opacity:0.9;fill:#FF6700;}
	.st115{opacity:0.9;fill:#FFF4A1;}
	.st116{opacity:0.9;fill:#FF5500;}
	.st117{fill:#206908;}
	.st118{fill:#ABEC90;}
	.st119{fill:#379801;}
	.st120{fill:#59C022;}
	.st121{fill:#41AE07;}
	.st122{fill:#7DD145;}
	.st123{fill:#1B5A00;}
	.st124{fill:#3BA204;}
	.st125{fill:#348D00;}
	.st126{fill:#4DB417;}
	.st127{fill:#57BB23;}
	.st128{display:none;}
</style>
<g id="레이어_3">
</g>
<g id="Layer_1">
	<g>
		<polygon class="st61" points="29.2,63.2 43.1,100.1 45,100.1 33.7,65.9 35.6,63.9 33,60.8 		"/>
		<path class="st62" d="M48.8,51.4L37,64.6c0,0-2.2-2-11.8-1.2s-17.3,0.4-20.8-2c3.5-1.4,12.8-3.3,22.2-7.7
			C36.8,48.9,48.8,51.4,48.8,51.4z"/>
		<polygon class="st63" points="0,49.5 1.8,47.3 0.9,51.1 		"/>
		<path class="st64" d="M53,47.2c0,0,0.1-9.8,3.5-18.2S63.4,12.9,64,8.4c2.4-0.1,3.4,0,3.4,0s1.6,22.5,0.8,25.6
			C66.6,35.4,53,47.2,53,47.2z"/>
		<polygon class="st62" points="64,8.4 57.5,0 63.4,2.8 67.4,8.4 		"/>
		<polygon class="st64" points="57.5,0 52.3,0 53.8,1.5 60.2,3.5 		"/>
		<polygon class="st64" points="48.8,51.4 53,47.2 68.2,34.1 72.1,40.6 67.4,55.2 57.5,64.6 44.8,68.7 33.7,65.9 35.6,63.9 37,64.6 
					"/>
		<polygon class="st62" points="50.7,49.5 62.4,59.9 67.4,55.2 72.1,40.6 68.2,34.1 		"/>
		<polygon class="st65" points="43.7,68.4 46.2,65.3 52.3,63.6 57.5,64.6 44.8,68.7 		"/>
		<polygon class="st64" points="67.4,55.2 66.7,47 68.4,42.6 72.1,40.6 		"/>
		<polygon class="st61" points="61.4,60.8 71.4,74.1 57.5,64.6 		"/>
		<polygon class="st63" points="62.4,59.9 76.5,72.3 68.4,52 67.4,55.2 		"/>
		<polygon class="st66" points="71.4,74.1 73.7,74.9 75.9,74.1 76.5,72.3 62.4,59.9 61.4,60.8 		"/>
		<polygon class="st62" points="33.7,65.9 45.8,102.6 84.5,91.2 71.4,74.1 57.5,64.6 44.8,68.7 		"/>
		<polygon class="st61" points="84.5,91.2 97.4,63 99.3,50.3 68.2,34.1 72.1,40.6 68.4,52 76.5,72.3 75.9,74.1 73.7,74.9 71.4,74.1 
					"/>
		<polygon class="st63" points="68.4,31.9 97.6,47.2 97.6,49.5 68.2,34.1 		"/>
		<polygon class="st67" points="81.3,92.1 99.3,109 59.1,98.7 		"/>
		<polygon class="st62" points="47.2,102.2 96.7,120.2 55.7,180.3 36.4,156 43.7,100.1 45,100.1 45.8,102.6 		"/>
		<polygon class="st67" points="57.5,99.1 98.4,117.9 105.1,136.8 105.1,142.3 96.7,120.2 47.2,102.2 		"/>
		<polygon class="st67" points="96.7,120.2 105.1,142.3 99.3,170.3 62.6,200 55.7,180.3 		"/>
		<polygon class="st61" points="92.3,107.2 100.2,115.9 86.7,112.6 57.5,99.1 59.1,98.7 		"/>
		<polygon class="st66" points="100.2,115.9 106.3,131.1 105.1,135.7 98.4,117.9 86.7,112.6 		"/>
		<polygon class="st68" points="99.3,109 102,114.2 106.3,131.1 100.2,115.9 92.3,107.2 		"/>
		<polygon class="st66" points="101.3,160.6 102.2,170.7 82.9,183.5 99.3,170.3 		"/>
		<polygon class="st63" points="62.6,200 97.6,199.1 97.6,196.2 82.9,183.5 		"/>
		<polygon class="st67" points="49.2,172.1 45.9,188.9 34.7,185.1 43.9,165.4 		"/>
		<polygon class="st64" points="37.1,156.9 25.8,168.7 34.7,185.1 43.9,165.4 		"/>
		<polygon class="st69" points="47.2,182.3 54.9,179.3 49.2,172.1 		"/>
		<polygon class="st66" points="96.7,64.4 119.3,125 105.1,135.7 106.3,131.1 102,114.2 99.3,109 81.3,92.1 84.5,91.2 		"/>
		<polygon class="st70" points="119.3,125 117.6,128.5 105.1,136.8 105.1,135.7 		"/>
		<polygon class="st61" points="119.3,125 119.3,129.6 116.2,134.3 105.1,141 105.1,136.8 117.6,128.5 		"/>
		<polygon class="st67" points="119.3,129.6 119.3,133 117.2,135.7 105.1,142.3 105.1,141 116.2,134.3 		"/>
		<polygon class="st61" points="119.3,133 105.1,165.4 105.1,142.3 117.2,135.7 		"/>
		<polygon class="st61" points="102.2,170.7 105.1,142.3 101.3,160.6 		"/>
		<polygon class="st69" points="105.1,165.4 102.6,167.3 105.1,142.3 		"/>
		<polygon class="st69" points="98.4,117.9 90.4,117.9 96.7,120.2 105.1,142.3 105.1,135.7 		"/>
		<polygon class="st68" points="96.7,64.4 108.7,133 119.3,125 		"/>
		<polygon class="st61" points="105.1,135.7 115.4,120.2 115,113.5 119.3,125 		"/>
		<polygon class="st64" points="4.5,61.3 0.8,55.9 0,49.5 6.3,60.6 		"/>
		<polygon class="st61" points="96.7,120.2 58.7,188.9 55.7,180.3 		"/>
	</g>
</g>
<g id="Layer_2" class="st128">
</g>
</svg>
