<?xml version="1.0" encoding="utf-8"?>
<!-- Generator: Adobe Illustrator 27.0.1, SVG Export Plug-In . SVG Version: 6.00 Build 0)  -->
<svg version="1.1" xmlns="http://www.w3.org/2000/svg" xmlns:xlink="http://www.w3.org/1999/xlink" x="0px" y="0px"
	 viewBox="0 0 200 125.3" style="enable-background:new 0 0 200 125.3;" xml:space="preserve">
<style type="text/css">
	.st0{fill:#19696A;}
	.st1{fill:#8CD3D4;}
	.st2{fill:#3F3F3F;}
	.st3{fill:#A0A0A0;}
	.st4{fill:#9B8787;}
	.st5{fill:#1D1D1B;}
	.st6{fill:#111E28;stroke:#1D1D1B;stroke-width:0.75;stroke-miterlimit:10;}
	.st7{fill:#6D9CC6;}
	.st8{fill:#6D9CC6;stroke:#1D1D1B;stroke-width:0.75;stroke-miterlimit:10;}
	.st9{fill:#A7EFF0;}
	.st10{fill:#A0E4CB;}
	.st11{fill:#59C1BD;}
	.st12{fill:#3C9E97;}
	.st13{fill:#CFF5E7;}
	.st14{fill:#7AC4A6;}
	.st15{fill:#75CCBE;}
	.st16{fill:#FFD8A8;}
	.st17{fill:#FD7E14;}
	.st18{fill:#FFC078;}
	.st19{fill:#FFA94D;}
	.st20{fill:#EF923F;}
	.st21{fill:#C92A2A;}
	.st22{fill:#FFC9C9;}
	.st23{fill:#FA5252;}
	.st24{fill:#FF8787;}
	.st25{fill:#F03E3E;}
	.st26{fill:#E03131;}
	.st27{fill:#FF6B6B;}
	.st28{fill:none;stroke:#BB8B8B;stroke-miterlimit:10;}
	.st29{fill:none;stroke:#B78989;stroke-miterlimit:10;}
	.st30{fill:none;stroke:#BF8E8E;stroke-miterlimit:10;}
	.st31{fill:none;stroke:#B38787;stroke-miterlimit:10;}
	.st32{fill:#E36BAE;}
	.st33{fill:#CC54A1;}
	.st34{fill:#BF4B9C;}
	.st35{fill:#B34180;}
	.st36{fill:#F8A1D1;}
	.st37{fill:#822659;}
	.st38{fill:#ED85C3;}
	.st39{fill:#DD85B9;}
	.st40{fill:#9B3270;}
	.st41{fill:#EFCF8F;}
	.st42{fill:#A44A4A;}
	.st43{fill:#DD8968;}
	.st44{fill:#E5B580;}
	.st45{fill:#E2AA79;}
	.st46{fill:#B2664F;}
	.st47{fill:#C6745C;}
	.st48{fill:#C8B6E2;}
	.st49{fill:#495C83;}
	.st50{fill:#7A86B6;}
	.st51{fill:#A8A4CE;}
	.st52{fill:#A9D2FF;}
	.st53{fill:#5D46C1;}
	.st54{fill:#7984EE;}
	.st55{fill:#88C0F2;}
	.st56{fill:#69ADE0;}
	.st57{fill:#779BE0;}
	.st58{fill:#6170DB;}
	.st59{display:none;}
</style>
<g id="레이어_3">
</g>
<g id="Layer_1">
	<g>
		<polygon class="st41" points="7.8,30.5 68.5,60.9 67.4,46.4 26.3,7.8 9.1,11.7 		"/>
		<polygon class="st42" points="9.1,11.7 6,27.6 8,28.2 		"/>
		<polygon class="st43" points="62.8,6.2 141.7,69 62.8,3.4 		"/>
		<polygon class="st44" points="141.7,69 183.3,9.4 183.3,6.5 169.3,0 62.8,3.4 		"/>
		<polygon class="st44" points="62.8,6.2 28.5,9.8 67.4,46.4 		"/>
		<polygon class="st45" points="62.8,6.2 67.4,46.4 68.5,60.9 70.8,94 98.4,125.3 141.7,69 		"/>
		<polygon class="st43" points="139.2,72.3 182.3,113.3 200,51.6 200,32.3 195.8,15.1 183.3,9.4 		"/>
		<polygon class="st46" points="161.2,93.2 144.3,115.1 182.3,113.3 		"/>
		<polygon class="st46" points="126.6,97.9 142.7,84.6 144.3,77.1 139.2,72.3 135.4,78.4 135.4,81.2 125.3,96.1 		"/>
		<polygon class="st42" points="128,86.8 125.3,96.1 135.4,81.2 135.4,78.4 139.2,72.3 		"/>
		<polygon class="st47" points="84.9,109.9 74,122.7 96.1,122.7 		"/>
		<polygon class="st44" points="69.1,69 22.7,90.1 17.7,87.2 4.4,60.9 6,49.2 12.3,32.7 68.5,60.9 		"/>
		<polygon class="st43" points="69.7,78.4 48,78.6 69.1,69 		"/>
		<polygon class="st46" points="70.8,94 60.9,104.2 79.8,104.2 		"/>
		<polygon class="st42" points="67.4,78.6 67.4,93.2 60.9,104.2 70.8,94 69.7,78.4 		"/>
		<polygon class="st43" points="17.7,87.2 0,80.5 8.5,69 		"/>
		<polygon class="st47" points="200,51.6 177.6,94 167.4,99.1 182.3,113.3 		"/>
		<polygon class="st45" points="22.7,90.1 51.8,65.8 55.2,54.2 68.5,60.9 69.1,69 		"/>
	</g>
</g>
<g id="Layer_2" class="st59">
</g>
</svg>
