<?xml version="1.0" encoding="UTF-8"?>
<svg id="Layer_1" data-name="Layer 1" xmlns="http://www.w3.org/2000/svg" viewBox="0 0 200 200">
  <defs>
    <style>
      .cls-1 {
        fill: #ffebb8;
      }

      .cls-2 {
        fill: #af573c;
      }

      .cls-3 {
        fill: #fff0b3;
      }

      .cls-4 {
        fill: #dd8950;
      }

      .cls-5 {
        fill: #db8952;
      }

      .cls-6 {
        fill: #f7ad7c;
      }

      .cls-7 {
        fill: #a42127;
      }

      .cls-8 {
        fill: #f7a76f;
      }

      .cls-9 {
        fill: #932121;
      }

      .cls-10 {
        fill: #b23838;
      }

      .cls-11 {
        fill: #c67b47;
      }

      .cls-12 {
        fill: #ef9b59;
      }

      .cls-13 {
        fill: #fee785;
      }

      .cls-14 {
        fill: #af3a2e;
      }

      .cls-15 {
        fill: #efb773;
      }

      .cls-16 {
        fill: #bc704a;
      }

      .cls-17 {
        fill: #cc6748;
      }

      .cls-18 {
        fill: #e08b51;
      }

      .cls-19 {
        fill: #c83b3b;
      }

      .cls-20 {
        fill: #ce7f49;
      }
    </style>
  </defs>
  <polygon class="cls-12" points="72.98 107.58 58.48 108.73 40.73 115.79 47.6 133.54 64.77 139.07 74.51 133.54 75.65 129.15 72.98 107.58"/>
  <polygon class="cls-13" points="72.98 107.58 69.93 104.15 54.47 105.86 40.73 115.79 58.48 108.73 72.98 107.58"/>
  <polygon class="cls-8" points="72.98 107.58 76.8 106.05 87.67 106.82 75.65 115.79 76.61 129.53 74.51 133.54 75.65 129.15 72.98 107.58"/>
  <polygon class="cls-7" points="84.19 109.42 77.18 117.19 76.61 129.53 75.65 115.79 84.19 109.42"/>
  <polygon class="cls-7" points="77.5 106.1 82.46 101.41 72.98 103.76 72.05 106.53 72.98 107.58 76.8 106.05 77.5 106.1"/>
  <polygon class="cls-13" points="82.46 101.41 81 100.77 70.5 103.06 69.93 104.15 72.05 106.53 72.98 103.76 82.46 101.41"/>
  <polygon class="cls-15" points="77.85 131.63 94.93 129.53 99.7 137.64 92.83 160.44 37.77 194.32 37.01 183.06 77.85 131.63"/>
  <polygon class="cls-13" points="92.83 160.44 61.09 152.73 37.01 183.06 37.77 194.32 92.83 160.44"/>
  <polygon class="cls-7" points="57.88 136.85 60.05 154.04 71.25 139.94 72.57 134.63 64.77 139.07 57.88 136.85"/>
  <polygon class="cls-2" points="59.06 146.24 37.01 172.28 37.48 182.46 60.05 154.04 59.06 146.24"/>
  <polygon class="cls-12" points="39.18 193.45 39.18 195.08 37.77 194.32 39.18 193.45"/>
  <polygon class="cls-3" points="39.18 195.08 29.52 195.37 28.23 192.41 37.34 187.94 37.77 194.32 39.18 195.08"/>
  <polygon class="cls-16" points="37.2 176.38 29.25 179.4 30.93 182.77 37.23 182.77 37.48 182.46 37.2 176.38"/>
  <polygon class="cls-20" points="92.92 129.77 91.11 124.76 77.02 120.56 76.61 129.53 74.51 133.54 72.57 134.63 71.25 139.94 77.85 131.63 92.92 129.77"/>
  <polygon class="cls-17" points="84.74 122.86 109.34 94.13 137.77 89.55 88.22 123.89 84.74 122.86"/>
  <polygon class="cls-12" points="85.93 121.47 77.02 120.56 84.74 122.86 85.93 121.47"/>
  <polygon class="cls-12" points="84.74 121.35 106.28 90.41 134.91 83.63 136.05 84.49 134.69 90.04 109.34 94.13 85.93 121.47 84.74 121.35"/>
  <polygon class="cls-4" points="106.28 90.41 109.34 94.13 85.93 121.47 84.74 121.35 106.28 90.41"/>
  <polygon class="cls-18" points="134.69 90.04 136.05 84.49 136.05 83.63 140.09 82.39 137.77 89.55 134.69 90.04"/>
  <polygon class="cls-1" points="137.77 89.55 163.76 9.23 170.5 10.89 171.77 32.01 151.42 86.22 141.87 89.55 137.77 89.55"/>
  <polygon class="cls-20" points="141.87 89.55 138.72 90.88 119.74 107.1 119.74 145.65 121.07 147.28 122.89 146.24 141.87 89.55"/>
  <polygon class="cls-12" points="79.35 168.74 82.46 170.08 119.74 145.65 119.74 107.1 138.72 90.88 141.87 89.55 137.77 89.55 88.22 123.89 91.11 124.76 92.92 129.77 94.93 129.53 99.7 137.64 92.83 160.44 79.35 168.74"/>
  <polygon class="cls-5" points="121.97 146.76 146.93 164.35 144.06 88.78 141.87 89.55 122.89 146.24 121.97 146.76"/>
  <polygon class="cls-10" points="146.74 159.39 148.27 155.67 144.06 88.78 146.74 159.39"/>
  <polygon class="cls-19" points="144.06 88.78 148.84 97.56 145.22 107.22 144.06 88.78"/>
  <polygon class="cls-17" points="144.06 88.78 151.42 86.22 152.32 85.92 148.43 96.82 144.06 88.78"/>
  <polygon class="cls-12" points="146.37 163.96 129.95 179.24 126.42 171.6 133.42 154.83 146.37 163.96"/>
  <polygon class="cls-11" points="129.76 178.84 122.17 178.24 121.6 176.67 121.6 175.19 127.39 173.7 129.76 178.84"/>
  <polygon class="cls-5" points="128.32 175.72 122.17 178.24 129.76 178.84 128.32 175.72"/>
  <polygon class="cls-14" points="129.02 151.73 120.74 163.16 116.49 160.49 121.97 146.76 129.02 151.73"/>
  <polygon class="cls-9" points="116.78 159.78 115.39 158.44 120.65 146.76 121.07 147.28 121.97 146.76 116.78 159.78"/>
  <polygon class="cls-2" points="120.15 162.79 114.68 167.5 112.05 164.35 116.38 159.39 116.78 159.78 116.49 160.49 120.15 162.79"/>
  <polygon class="cls-7" points="115.66 158.7 113.53 159.97 111.39 163.97 112.05 164.35 116.38 159.39 115.66 158.7"/>
  <polygon class="cls-14" points="120.15 146.16 113.88 157.72 113.88 159.76 115.66 158.7 115.39 158.44 120.65 146.76 120.15 146.16"/>
  <polygon class="cls-12" points="91.07 161.52 89.23 165.64 82.46 170.08 79.35 168.74 91.07 161.52"/>
  <polygon class="cls-6" points="146.16 63.61 167.98 42.11 151.42 86.22 144.06 88.78 141.87 89.55 137.77 89.55 146.16 63.61"/>
</svg>