<?xml version="1.0" encoding="utf-8"?>
<!-- Generator: Adobe Illustrator 27.0.1, SVG Export Plug-In . SVG Version: 6.00 Build 0)  -->
<svg version="1.1" xmlns="http://www.w3.org/2000/svg" xmlns:xlink="http://www.w3.org/1999/xlink" x="0px" y="0px"
	 viewBox="0 0 200 198.6" style="enable-background:new 0 0 200 198.6;" xml:space="preserve">
<style type="text/css">
	.st0{fill:#19696A;}
	.st1{fill:#8CD3D4;}
	.st2{fill:#3F3F3F;}
	.st3{fill:#A0A0A0;}
	.st4{fill:#9B8787;}
	.st5{fill:#1D1D1B;}
	.st6{fill:#111E28;stroke:#1D1D1B;stroke-width:0.75;stroke-miterlimit:10;}
	.st7{fill:#6D9CC6;}
	.st8{fill:#6D9CC6;stroke:#1D1D1B;stroke-width:0.75;stroke-miterlimit:10;}
	.st9{fill:#A7EFF0;}
	.st10{fill:#A0E4CB;}
	.st11{fill:#59C1BD;}
	.st12{fill:#3C9E97;}
	.st13{fill:#CFF5E7;}
	.st14{fill:#7AC4A6;}
	.st15{fill:#75CCBE;}
	.st16{fill:#FFD8A8;}
	.st17{fill:#FD7E14;}
	.st18{fill:#FFC078;}
	.st19{fill:#FFA94D;}
	.st20{fill:#EF923F;}
	.st21{fill:#C92A2A;}
	.st22{fill:#FFC9C9;}
	.st23{fill:#FA5252;}
	.st24{fill:#FF8787;}
	.st25{fill:#F03E3E;}
	.st26{fill:#E03131;}
	.st27{fill:#FF6B6B;}
	.st28{fill:none;stroke:#BB8B8B;stroke-miterlimit:10;}
	.st29{fill:none;stroke:#B78989;stroke-miterlimit:10;}
	.st30{fill:none;stroke:#BF8E8E;stroke-miterlimit:10;}
	.st31{fill:none;stroke:#B38787;stroke-miterlimit:10;}
	.st32{fill:#E36BAE;}
	.st33{fill:#CC54A1;}
	.st34{fill:#BF4B9C;}
	.st35{fill:#B34180;}
	.st36{fill:#F8A1D1;}
	.st37{fill:#822659;}
	.st38{fill:#ED85C3;}
	.st39{fill:#DD85B9;}
	.st40{fill:#9B3270;}
	.st41{fill:#EFCF8F;}
	.st42{fill:#A44A4A;}
	.st43{fill:#DD8968;}
	.st44{fill:#E5B580;}
	.st45{fill:#E2AA79;}
	.st46{fill:#B2664F;}
	.st47{fill:#C6745C;}
	.st48{fill:#C8B6E2;}
	.st49{fill:#495C83;}
	.st50{fill:#7A86B6;}
	.st51{fill:#A8A4CE;}
	.st52{fill:#A9D2FF;}
	.st53{fill:#5D46C1;}
	.st54{fill:#7984EE;}
	.st55{fill:#88C0F2;}
	.st56{fill:#779BE0;}
	.st57{fill:#69ADE0;}
	.st58{fill:#6170DB;}
	.st59{fill:none;}
	.st60{fill:#4A6363;}
	.st61{fill:#895C5C;}
	.st62{fill:#A77979;}
	.st63{fill:#704F4F;}
	.st64{fill:#B58C8C;}
	.st65{fill:#C49F9F;}
	.st66{fill:#472D2D;}
	.st67{fill:#996B6B;}
	.st68{fill:#5B3F3F;}
	.st69{fill:#553939;}
	.st70{fill:#724747;}
	.st71{fill:#E3C2F9;}
	.st72{fill:#D89CF6;}
	.st73{fill:#916DD5;}
	.st74{fill:#5D499B;}
	.st75{fill:#C088E2;}
	.st76{fill:#6B54B5;}
	.st77{fill:#7D60C6;}
	.st78{fill:#3E206D;}
	.st79{fill:#E9D2FC;}
	.st80{fill:#DDA9FC;}
	.st81{fill:#EF9B59;}
	.st82{fill:#FEE785;}
	.st83{fill:#F7A76F;}
	.st84{fill:#A42127;}
	.st85{fill:#EFB773;}
	.st86{fill:#AF573C;}
	.st87{fill:#FFF0B3;}
	.st88{fill:#BC704A;}
	.st89{fill:#CE7F49;}
	.st90{fill:#CC6748;}
	.st91{fill:#DD8950;}
	.st92{fill:#E08B51;}
	.st93{fill:#FFEBB8;}
	.st94{fill:#DB8952;}
	.st95{fill:#B23838;}
	.st96{fill:#C83B3B;}
	.st97{fill:#C67B47;}
	.st98{fill:#AF3A2E;}
	.st99{fill:#932121;}
	.st100{fill:#F7AD7C;}
	.st101{fill:none;stroke:#F7AD7C;stroke-miterlimit:10;}
	.st102{opacity:0.9;fill:#FFFFFF;}
	.st103{opacity:0.9;fill:#FF9500;}
	.st104{opacity:0.9;fill:#FFA200;}
	.st105{opacity:0.9;fill:#FFD000;}
	.st106{opacity:0.9;fill:#FFC300;}
	.st107{opacity:0.9;fill:#FFB700;}
	.st108{opacity:0.9;fill:#FFEA00;}
	.st109{opacity:0.9;fill:#FF8800;}
	.st110{opacity:0.9;fill:#FF7B00;}
	.st111{opacity:0.9;fill:#FFF388;}
	.st112{opacity:0.9;fill:#FFE98D;}
	.st113{opacity:0.9;fill:#FF9C39;}
	.st114{opacity:0.9;fill:#FF6700;}
	.st115{opacity:0.9;fill:#FFF4A1;}
	.st116{opacity:0.9;fill:#FF5500;}
	.st117{fill:#206908;}
	.st118{fill:#ABEC90;}
	.st119{fill:#379801;}
	.st120{fill:#59C022;}
	.st121{fill:#41AE07;}
	.st122{fill:#7DD145;}
	.st123{fill:#1B5A00;}
	.st124{fill:#3BA204;}
	.st125{fill:#348D00;}
	.st126{fill:#4DB417;}
	.st127{fill:#57BB23;}
	.st128{display:none;}
</style>
<g id="레이어_3">
</g>
<g id="Layer_1">
	<g>
		<polygon class="st71" points="117.8,103.3 0,69.2 31.5,131.6 43.2,136.8 116.8,106.7 		"/>
		<polygon class="st72" points="0,69.2 82.9,120.5 116.8,106.7 117.8,103.3 		"/>
		<polygon class="st71" points="63.6,145.8 149.1,110.5 200,154.9 71.3,150 		"/>
		<polygon class="st72" points="109.4,126.9 200,154.9 149.1,110.5 		"/>
		<polygon class="st73" points="87.9,103.3 71.6,142.5 119.1,122.9 		"/>
		<polygon class="st72" points="113.3,119.2 139.5,26.4 156.1,0 145.3,27.6 134.7,116.5 119.1,122.9 		"/>
		<polygon class="st74" points="63.6,145.8 64.7,163.8 97.7,165.7 116.8,151.7 71.3,150 		"/>
		<polygon class="st75" points="79.7,122.9 58.6,43.9 47.7,47.2 63.7,192.5 74.3,198.6 64.7,163.8 63.6,145.8 71.6,142.5 		"/>
		<polygon class="st76" points="97.7,165.7 97.7,177.6 128.3,177.6 130.1,152.2 116.8,151.7 		"/>
		<polygon class="st77" points="64.7,163.8 74.3,198.6 97.7,177.6 97.7,165.7 		"/>
		<polygon class="st73" points="58.6,43.9 42.1,43.9 22.4,69.9 17.8,83.2 23.8,70.6 47.7,47.2 		"/>
		<polygon class="st71" points="48.5,54.5 17.8,83.2 23.8,70.6 47.7,47.2 		"/>
		<polygon class="st73" points="44.8,57.9 61.9,190.2 63.5,190.4 48.5,54.5 		"/>
		<polygon class="st74" points="54.3,131.6 43.2,136.8 61.9,190.2 		"/>
		<polygon class="st78" points="87.9,103.3 78,116.5 79.7,122.9 		"/>
		<polygon class="st74" points="102.6,112.5 116.8,106.7 113.3,119.2 		"/>
		<polygon class="st77" points="87.9,103.3 97.9,131.6 119.1,122.9 		"/>
		<polygon class="st72" points="70.9,89.7 58,140.7 47.7,47.2 58.6,43.9 		"/>
		<polygon class="st75" points="121.2,91.1 142.1,54.5 134.7,116.5 119.1,122.9 113.3,119.2 		"/>
		<polygon class="st79" points="71.3,150 169.5,128.3 200,154.9 		"/>
		<polygon class="st80" points="137.1,135.5 200,154.9 169.5,128.3 		"/>
	</g>
</g>
<g id="Layer_2" class="st128">
</g>
</svg>
