<?xml version="1.0" encoding="utf-8"?>
<!-- Generator: Adobe Illustrator 27.0.1, SVG Export Plug-In . SVG Version: 6.00 Build 0)  -->
<svg version="1.1" xmlns="http://www.w3.org/2000/svg" xmlns:xlink="http://www.w3.org/1999/xlink" x="0px" y="0px"
	 viewBox="0 0 200 181.7" style="enable-background:new 0 0 200 181.7;" xml:space="preserve">
<style type="text/css">
	.st0{fill:#19696A;}
	.st1{fill:#8CD3D4;}
	.st2{fill:#3F3F3F;}
	.st3{fill:#A0A0A0;}
	.st4{fill:#9B8787;}
	.st5{fill:#1D1D1B;}
	.st6{fill:#111E28;stroke:#1D1D1B;stroke-width:0.75;stroke-miterlimit:10;}
	.st7{fill:#6D9CC6;}
	.st8{fill:#6D9CC6;stroke:#1D1D1B;stroke-width:0.75;stroke-miterlimit:10;}
	.st9{fill:#A7EFF0;}
	.st10{fill:#A0E4CB;}
	.st11{fill:#59C1BD;}
	.st12{fill:#3C9E97;}
	.st13{fill:#CFF5E7;}
	.st14{fill:#7AC4A6;}
	.st15{fill:#75CCBE;}
	.st16{fill:#FFD8A8;}
	.st17{fill:#FD7E14;}
	.st18{fill:#FFC078;}
	.st19{fill:#FFA94D;}
	.st20{fill:#EF923F;}
	.st21{fill:#C92A2A;}
	.st22{fill:#FFC9C9;}
	.st23{fill:#FA5252;}
	.st24{fill:#FF8787;}
	.st25{fill:#F03E3E;}
	.st26{fill:#E03131;}
	.st27{fill:#FF6B6B;}
	.st28{fill:none;stroke:#BB8B8B;stroke-miterlimit:10;}
	.st29{fill:none;stroke:#B78989;stroke-miterlimit:10;}
	.st30{fill:none;stroke:#BF8E8E;stroke-miterlimit:10;}
	.st31{fill:none;stroke:#B38787;stroke-miterlimit:10;}
	.st32{fill:#E36BAE;}
	.st33{fill:#CC54A1;}
	.st34{fill:#BF4B9C;}
	.st35{fill:#B34180;}
	.st36{fill:#F8A1D1;}
	.st37{fill:#822659;}
	.st38{fill:#ED85C3;}
	.st39{fill:#DD85B9;}
	.st40{fill:#9B3270;}
	.st41{fill:#EFCF8F;}
	.st42{fill:#A44A4A;}
	.st43{fill:#DD8968;}
	.st44{fill:#E5B580;}
	.st45{fill:#E2AA79;}
	.st46{fill:#B2664F;}
	.st47{fill:#C6745C;}
	.st48{fill:#C8B6E2;}
	.st49{fill:#495C83;}
	.st50{fill:#7A86B6;}
	.st51{fill:#A8A4CE;}
	.st52{fill:#A9D2FF;}
	.st53{fill:#5D46C1;}
	.st54{fill:#7984EE;}
	.st55{fill:#88C0F2;}
	.st56{fill:#69ADE0;}
	.st57{fill:#779BE0;}
	.st58{fill:#6170DB;}
	.st59{display:none;}
</style>
<g id="레이어_3">
</g>
<g id="Layer_1">
	<g>
		<polygon class="st52" points="19.3,38 16,51.5 30,48.3 43.8,48.5 91.1,40.8 113.2,23.3 92.6,17 70,15 39.2,20.3 		"/>
		<polygon class="st54" points="16,51.5 14.4,55.3 30.2,50 40.7,50 43.8,48.5 30,48.3 		"/>
		<polygon class="st52" points="16,54.8 36.4,67.6 49.7,47.5 43.8,48.5 40.7,50 30.2,50 		"/>
		<polygon class="st57" points="84.1,41.9 102.1,72.3 123.6,31.7 123.6,28.3 112.5,23.9 91.1,40.8 		"/>
		<polygon class="st55" points="93.5,17.3 130.5,0 113.2,23.3 		"/>
		<polygon class="st56" points="130.5,0 139.7,0.7 123.6,28.3 112.5,23.9 113.2,23.3 		"/>
		<polygon class="st52" points="51.6,69 57.6,67.6 74,67.6 79.6,73 76.2,109.4 55.9,83.1 		"/>
		<polygon class="st55" points="37.2,66.5 41,68.2 51.6,69 57.6,67.6 74,67.6 81.5,71.3 102.1,72.3 84.1,41.9 49.7,47.5 		"/>
		<polygon class="st53" points="79.6,73 81.5,71.3 74,67.6 		"/>
		<polygon class="st53" points="37.2,66.5 37.8,70.3 39.1,73.6 41,68.2 		"/>
		<polygon class="st58" points="55,80.4 50.9,92.4 39.1,73.6 41,68.2 51.6,69 		"/>
		<polygon class="st55" points="16.8,48.3 0,55.3 0.7,59.2 7.7,63 31.2,64.4 16,54.8 14.4,55.3 16,51.5 		"/>
		<polygon class="st53" points="19.3,38 13.3,49.8 16.8,48.3 		"/>
		<polygon class="st58" points="123.6,31.7 157.2,60.6 167.7,77 174,93.3 175.8,103 165.3,94.3 138.9,83.7 117.3,76.2 97.7,72.1 
			102.1,72.3 		"/>
		<polygon class="st52" points="175.8,103 187.8,119.3 192.6,130.9 184.2,118.2 165.3,94.3 		"/>
		<polygon class="st58" points="190.4,127.5 176.3,114.9 165.3,94.3 184.2,118.2 		"/>
		<polygon class="st53" points="175.8,113.8 172.6,116.9 164.1,115.4 166.8,109.4 167.1,101.3 165.3,94.3 		"/>
		<polygon class="st53" points="173.7,115.9 177.2,115.6 176.3,114.9 175.8,113.8 		"/>
		<polygon class="st53" points="164.6,114.3 162.7,114.9 165.9,108.2 165.9,100 164.1,93.8 165.3,94.3 167.1,101.3 166.8,109.4 		
			"/>
		<polygon class="st55" points="164.1,93.8 164.5,100.3 163,105.6 162.7,114.9 165.9,108.2 165.9,100 		"/>
		<polygon class="st56" points="79.6,42.7 67,67.6 74,67.6 81.5,71.3 102.1,72.3 84.1,41.9 		"/>
		<polygon class="st53" points="153.3,79 158.2,74.7 158.7,69.5 175.8,103 165.3,94.3 138.9,83.7 117.3,76.2 137.5,79.2 		"/>
		<polygon class="st53" points="175.8,103 174,93.3 167.7,77 157.2,60.6 150.4,54.7 158.7,69.5 		"/>
		<polygon class="st57" points="102.1,72.3 117.8,48.3 123.6,31.7 		"/>
		<polygon class="st54" points="49.7,47.5 93.5,41.9 113.2,23.3 91.1,40.8 		"/>
		<polygon class="st52" points="192.3,144.9 198.9,158.9 189.5,173.6 183.4,169.3 189.5,158.9 		"/>
		<polygon class="st52" points="175.7,130.9 172.1,143.5 177.4,148.5 181.7,139.7 		"/>
		<polygon class="st52" points="174,168 169.9,175.6 169.9,181.7 174,176.3 174,171.1 		"/>
		<polygon class="st52" points="194.6,134.9 196.2,143.3 200,148.1 199.8,141.4 196.6,137.3 		"/>
	</g>
</g>
<g id="Layer_2" class="st59">
</g>
</svg>
