<?xml version="1.0" encoding="UTF-8"?>
<svg id="Layer_1" data-name="Layer 1" xmlns="http://www.w3.org/2000/svg" viewBox="0 0 200 200">
  <defs>
    <style>
      .cls-1 {
        fill: #5b3f3f;
      }

      .cls-2 {
        fill: #c49f9f;
      }

      .cls-3 {
        fill: #b58c8c;
      }

      .cls-4 {
        fill: #a77979;
      }

      .cls-5 {
        fill: #553939;
      }

      .cls-6 {
        fill: #895c5c;
      }

      .cls-7 {
        fill: #704f4f;
      }

      .cls-8 {
        fill: #472d2d;
      }

      .cls-9 {
        fill: #996b6b;
      }

      .cls-10 {
        fill: #724747;
      }
    </style>
  </defs>
  <polygon class="cls-6" points="71.04 65.66 83.71 99.49 85.45 99.49 75.14 68.2 76.87 66.34 74.52 63.52 71.04 65.66"/>
  <path class="cls-4" d="M88.98,54.84l-10.8,12.11s-2.05-1.86-10.8-1.12c-8.76,.75-15.83,.37-19-1.86,3.17-1.3,11.74-2.98,20.31-7.08,9.31-4.28,20.31-2.05,20.31-2.05Z"/>
  <polygon class="cls-7" points="44.27 53.13 45.95 51.11 45.09 54.57 44.27 53.13"/>
  <path class="cls-3" d="M92.77,51.06s.12-8.94,3.23-16.64c3.1-7.7,6.33-14.78,6.83-18.88,2.24-.12,3.1,0,3.1,0,0,0,1.49,20.62,.75,23.47-1.49,1.24-13.91,12.05-13.91,12.05Z"/>
  <polygon class="cls-4" points="102.83 15.54 96.87 7.84 102.34 10.44 105.94 15.54 102.83 15.54"/>
  <polygon class="cls-3" points="96.87 7.84 92.15 7.84 93.52 9.2 99.36 11.06 96.87 7.84"/>
  <polygon class="cls-3" points="88.98 54.84 92.77 51.06 106.68 39.01 110.28 44.97 105.94 58.38 96.87 66.95 85.32 70.68 75.14 68.2 76.87 66.34 78.18 66.95 88.98 54.84"/>
  <polygon class="cls-4" points="90.72 53.11 101.4 62.67 105.94 58.38 110.28 44.97 106.68 39.01 90.72 53.11"/>
  <polygon class="cls-2" points="84.27 70.42 86.56 67.57 92.15 66.08 96.87 66.95 85.32 70.68 84.27 70.42"/>
  <polygon class="cls-3" points="105.94 58.38 105.32 50.84 106.89 46.83 110.28 44.97 105.94 58.38"/>
  <polygon class="cls-6" points="100.5 63.52 109.67 75.65 96.87 66.95 100.5 63.52"/>
  <polygon class="cls-7" points="101.4 62.67 114.26 74.03 106.89 55.44 105.94 58.38 101.4 62.67"/>
  <polygon class="cls-8" points="109.67 75.65 111.77 76.39 113.76 75.65 114.26 74.03 101.4 62.67 100.5 63.52 109.67 75.65"/>
  <polygon class="cls-4" points="75.14 68.2 86.19 101.73 121.59 91.3 109.67 75.65 96.87 66.95 85.32 70.68 75.14 68.2"/>
  <polygon class="cls-6" points="121.59 91.3 133.38 65.46 135.12 53.91 106.68 39.01 110.28 44.97 106.89 55.44 114.26 74.03 113.76 75.65 111.77 76.39 109.67 75.65 121.59 91.3"/>
  <polygon class="cls-7" points="106.89 37.02 133.63 51.06 133.63 53.13 106.68 39.01 106.89 37.02"/>
  <polygon class="cls-9" points="118.73 92.14 135.12 107.56 98.36 98.14 118.73 92.14"/>
  <polygon class="cls-4" points="87.47 101.35 132.76 117.87 95.26 172.89 77.62 150.66 84.27 99.49 85.45 99.49 86.19 101.73 87.47 101.35"/>
  <polygon class="cls-9" points="96.87 98.58 134.38 115.76 140.46 133.02 140.46 138.12 132.76 117.87 87.47 101.35 96.87 98.58"/>
  <polygon class="cls-9" points="132.76 117.87 140.46 138.12 135.12 163.7 101.59 190.9 95.26 172.89 132.76 117.87"/>
  <polygon class="cls-6" points="128.76 105.93 135.99 113.9 123.67 110.86 96.87 98.58 98.36 98.14 128.76 105.93"/>
  <polygon class="cls-8" points="135.99 113.9 141.58 127.81 140.46 132.03 134.38 115.76 123.67 110.86 135.99 113.9"/>
  <polygon class="cls-1" points="135.12 107.56 137.61 112.41 141.58 127.81 135.99 113.9 128.76 105.93 135.12 107.56"/>
  <polygon class="cls-8" points="136.96 154.88 137.86 164.07 120.19 175.81 135.12 163.7 136.96 154.88"/>
  <polygon class="cls-7" points="101.59 190.9 133.63 190.03 133.63 187.42 120.19 175.81 101.59 190.9"/>
  <polygon class="cls-9" points="89.27 165.34 86.31 180.72 76.01 177.24 84.44 159.26 89.27 165.34"/>
  <polygon class="cls-3" points="78.25 151.45 67.93 162.21 76.01 177.24 84.44 159.26 78.25 151.45"/>
  <polygon class="cls-5" points="87.47 174.72 94.55 171.99 89.27 165.34 87.47 174.72"/>
  <polygon class="cls-8" points="132.76 66.82 153.5 122.22 140.46 132.03 141.58 127.81 137.61 112.41 135.12 107.56 118.73 92.14 121.59 91.3 132.76 66.82"/>
  <polygon class="cls-10" points="153.5 122.22 151.89 125.45 140.46 133.02 140.46 132.03 153.5 122.22"/>
  <polygon class="cls-6" points="153.5 122.22 153.5 126.44 150.65 130.79 140.46 136.87 140.46 133.02 151.89 125.45 153.5 122.22"/>
  <polygon class="cls-9" points="153.5 126.44 153.5 129.55 151.52 132.03 140.46 138.12 140.46 136.87 150.65 130.79 153.5 126.44"/>
  <polygon class="cls-6" points="153.5 129.55 140.46 159.26 140.46 138.12 151.52 132.03 153.5 129.55"/>
  <polygon class="cls-6" points="137.86 164.07 140.46 138.12 136.96 154.88 137.86 164.07"/>
  <polygon class="cls-5" points="140.46 159.26 138.17 160.96 140.46 138.12 140.46 159.26"/>
  <polygon class="cls-5" points="134.38 115.76 126.97 115.76 132.76 117.87 140.46 138.12 140.46 132.03 134.38 115.76"/>
  <polygon class="cls-1" points="132.76 66.82 143.76 129.55 153.5 122.22 132.76 66.82"/>
  <polygon class="cls-6" points="140.46 132.03 149.87 117.87 149.56 111.68 153.5 122.22 140.46 132.03"/>
  <polygon class="cls-3" points="48.37 63.97 45.02 58.98 44.27 53.13 50.04 63.32 48.37 63.97"/>
  <polygon class="cls-6" points="132.76 117.87 98.01 180.72 95.26 172.89 132.76 117.87"/>
</svg>