<?xml version="1.0" encoding="utf-8"?>
<!-- Generator: Adobe Illustrator 27.0.1, SVG Export Plug-In . SVG Version: 6.00 Build 0)  -->
<svg version="1.1" id="Layer_1" xmlns="http://www.w3.org/2000/svg" xmlns:xlink="http://www.w3.org/1999/xlink" x="0px" y="0px"
	 viewBox="0 0 200 200" style="enable-background:new 0 0 200 200;" xml:space="preserve">
<style type="text/css">
	.st0{fill:#19696A;}
	.st1{fill:#6D9CC6;}
	.st2{fill:#6D9CC6;stroke:#1D1D1B;stroke-width:0.75;stroke-miterlimit:10;}
	.st3{fill:#8CD3D4;}
	.st4{fill:#A0E4CB;}
	.st5{fill:#59C1BD;}
	.st6{fill:#3C9E97;}
	.st7{fill:#CFF5E7;}
	.st8{fill:#7AC4A6;}
	.st9{fill:#75CCBE;}
	.st10{fill:#FFD8A8;}
	.st11{fill:#FD7E14;}
	.st12{fill:#FFC078;}
	.st13{fill:#FFA94D;}
	.st14{fill:#EF923F;}
	.st15{fill:#C92A2A;}
	.st16{fill:#FFC9C9;}
	.st17{fill:#FA5252;}
	.st18{fill:#FF8787;}
	.st19{fill:#F03E3E;}
	.st20{fill:#E03131;}
	.st21{fill:#FF6B6B;}
</style>
<g>
	<polygon class="st4" points="63.74,116.68 134.21,187.83 134.21,199.06 48.77,182.38 	"/>
	<polygon class="st4" points="134.21,142.89 121.28,91.83 63.74,116.68 127.61,181.16 139.66,165.02 	"/>
	<polygon class="st5" points="153.94,106.87 139.66,165.02 125.67,109.19 	"/>
	<polygon class="st6" points="158.44,106.54 156,132.68 144.86,143.85 153.94,106.87 	"/>
	<polygon class="st6" points="144.26,148 149.87,155.15 148.51,165.02 139.66,165.02 	"/>
	<polygon class="st4" points="63.74,116.68 37.19,136.5 37.19,156.51 48.77,182.38 	"/>
	<polygon class="st5" points="25.28,128.94 23.91,136.5 37.19,136.5 63.74,116.68 55.57,116.68 	"/>
	<polygon class="st7" points="114.75,84 96.43,34.3 134.21,64.04 	"/>
	<polygon class="st5" points="96.43,34.3 91.49,14.55 115.32,49.17 	"/>
	<polygon class="st5" points="134.21,64.04 134.21,45.53 115.32,0.94 117.19,44.85 120.99,53.63 	"/>
	<polygon class="st7" points="134.21,60.34 119.4,43.23 115.32,0.94 117.19,44.85 120.99,53.63 134.21,64.04 	"/>
	<polygon class="st4" points="112.43,86.38 139.32,58.81 176.09,86.38 168.6,105.79 122.64,109.19 	"/>
	<polygon class="st8" points="112.43,86.38 127.91,101.19 168.6,105.79 122.64,109.19 	"/>
	<polygon class="st9" points="122.69,176.2 133.19,139.19 139.66,165.02 127.61,181.16 	"/>
	<polygon class="st8" points="77.53,110.73 122.69,176.2 63.74,116.68 	"/>
	<polygon class="st7" points="55.12,183.62 87.8,140.97 63.74,116.68 48.77,182.38 	"/>
	<polygon class="st8" points="37.19,156.51 63.74,116.68 37.19,136.5 	"/>
	<polygon class="st7" points="23.91,136.5 55.57,116.68 25.28,128.94 	"/>
	<polygon class="st6" points="153.94,106.87 126.39,112.06 125.62,108.97 	"/>
</g>
</svg>
