<?xml version="1.0" encoding="utf-8"?>
<!-- Generator: Adobe Illustrator 27.0.1, SVG Export Plug-In . SVG Version: 6.00 Build 0)  -->
<svg version="1.1" xmlns="http://www.w3.org/2000/svg" xmlns:xlink="http://www.w3.org/1999/xlink" x="0px" y="0px"
	 viewBox="0 0 200 182.1" style="enable-background:new 0 0 200 182.1;" xml:space="preserve">
<style type="text/css">
	.st0{fill:#19696A;}
	.st1{fill:#8CD3D4;}
	.st2{fill:#3F3F3F;}
	.st3{fill:#A0A0A0;}
	.st4{fill:#9B8787;}
	.st5{fill:#1D1D1B;}
	.st6{fill:#111E28;stroke:#1D1D1B;stroke-width:0.75;stroke-miterlimit:10;}
	.st7{fill:#6D9CC6;}
	.st8{fill:#6D9CC6;stroke:#1D1D1B;stroke-width:0.75;stroke-miterlimit:10;}
	.st9{fill:#A7EFF0;}
	.st10{fill:#A0E4CB;}
	.st11{fill:#59C1BD;}
	.st12{fill:#3C9E97;}
	.st13{fill:#CFF5E7;}
	.st14{fill:#7AC4A6;}
	.st15{fill:#75CCBE;}
	.st16{fill:#FFD8A8;}
	.st17{fill:#FD7E14;}
	.st18{fill:#FFC078;}
	.st19{fill:#FFA94D;}
	.st20{fill:#EF923F;}
	.st21{fill:#C92A2A;}
	.st22{fill:#FFC9C9;}
	.st23{fill:#FA5252;}
	.st24{fill:#FF8787;}
	.st25{fill:#F03E3E;}
	.st26{fill:#E03131;}
	.st27{fill:#FF6B6B;}
	.st28{fill:none;stroke:#BB8B8B;stroke-miterlimit:10;}
	.st29{fill:none;stroke:#B78989;stroke-miterlimit:10;}
	.st30{fill:none;stroke:#BF8E8E;stroke-miterlimit:10;}
	.st31{fill:none;stroke:#B38787;stroke-miterlimit:10;}
	.st32{fill:#E36BAE;}
	.st33{fill:#CC54A1;}
	.st34{fill:#BF4B9C;}
	.st35{fill:#B34180;}
	.st36{fill:#F8A1D1;}
	.st37{fill:#822659;}
	.st38{fill:#ED85C3;}
	.st39{fill:#DD85B9;}
	.st40{fill:#9B3270;}
	.st41{fill:#EFCF8F;}
	.st42{fill:#A44A4A;}
	.st43{fill:#DD8968;}
	.st44{fill:#E5B580;}
	.st45{fill:#E2AA79;}
	.st46{fill:#B2664F;}
	.st47{fill:#C6745C;}
	.st48{fill:#C8B6E2;}
	.st49{fill:#495C83;}
	.st50{fill:#7A86B6;}
	.st51{fill:#A8A4CE;}
	.st52{fill:#A9D2FF;}
	.st53{fill:#5D46C1;}
	.st54{fill:#7984EE;}
	.st55{fill:#88C0F2;}
	.st56{fill:#69ADE0;}
	.st57{fill:#779BE0;}
	.st58{fill:#6170DB;}
	.st59{display:none;}
</style>
<g id="레이어_3">
</g>
<g id="Layer_1">
	<g>
		<polygon class="st48" points="31.2,85 57.4,148 124.3,148 163.8,97.8 145.1,52.2 82.8,32.8 		"/>
		<polygon class="st48" points="48.1,125.6 34.8,140.6 4.5,138.4 0,125.6 18.3,104 40,106.1 		"/>
		<polygon class="st49" points="57.4,148 40.5,134.2 48.1,125.6 		"/>
		<polygon class="st49" points="31.2,104 24,92.4 31.2,85 40,106.1 		"/>
		<polygon class="st50" points="55.3,60.7 24,80.8 24,92.4 31.2,85 		"/>
		<polygon class="st50" points="45.2,138.1 45.2,157.6 90.6,148 57.4,148 		"/>
		<polygon class="st51" points="24,80.8 55.3,11.6 55.3,60.7 		"/>
		<polygon class="st51" points="50.3,156.5 116.5,182.1 85.6,149.1 		"/>
		<polygon class="st50" points="124.3,148 128.6,154.9 93.6,157.6 85.6,149.1 		"/>
		<polygon class="st50" points="55.3,158.5 55.3,170.5 116.5,182.1 		"/>
		<polygon class="st49" points="128.6,154.9 163.8,97.8 124.3,148 		"/>
		<polygon class="st51" points="200,140.6 156.8,109.2 148.7,122.3 		"/>
		<polygon class="st50" points="144.1,129.8 148.7,122.3 200,140.6 		"/>
		<polygon class="st49" points="149.5,62.9 161.2,62.9 163.8,71.4 156.7,80.3 		"/>
		<polygon class="st50" points="111.2,41.7 139.7,0 132,48.1 		"/>
		<polygon class="st51" points="43.4,114.4 153.1,71.6 163.8,97.8 124.3,148 57.4,148 		"/>
		<polygon class="st51" points="34.8,140.6 40.5,120.5 34.8,112.5 18.3,104 40,106.1 48.1,125.6 		"/>
		<polygon class="st49" points="26,76.5 24,65.6 55.3,11.6 		"/>
		<polygon class="st49" points="134.8,49 139.7,0 132,48.1 		"/>
		<polygon class="st49" points="90.6,148 124.3,148 85.6,149.1 		"/>
	</g>
</g>
<g id="Layer_2" class="st59">
</g>
</svg>
