<?xml version="1.0" encoding="utf-8"?>
<!-- Generator: Adobe Illustrator 27.0.1, SVG Export Plug-In . SVG Version: 6.00 Build 0)  -->
<svg version="1.1" id="Layer_1" xmlns="http://www.w3.org/2000/svg" xmlns:xlink="http://www.w3.org/1999/xlink" x="0px" y="0px"
	 viewBox="0 0 200 200" style="enable-background:new 0 0 200 200;" xml:space="preserve">
<style type="text/css">
	.st0{fill:#19696A;}
	.st1{fill:#6D9CC6;}
	.st2{fill:#6D9CC6;stroke:#1D1D1B;stroke-width:0.75;stroke-miterlimit:10;}
	.st3{fill:#8CD3D4;}
	.st4{fill:#A0E4CB;}
	.st5{fill:#59C1BD;}
	.st6{fill:#3C9E97;}
	.st7{fill:#CFF5E7;}
	.st8{fill:#7AC4A6;}
	.st9{fill:#75CCBE;}
	.st10{fill:#FFD8A8;}
	.st11{fill:#FD7E14;}
	.st12{fill:#FFC078;}
	.st13{fill:#FFA94D;}
	.st14{fill:#EF923F;}
	.st15{fill:#C92A2A;}
	.st16{fill:#FFC9C9;}
	.st17{fill:#FA5252;}
	.st18{fill:#FF8787;}
	.st19{fill:#F03E3E;}
	.st20{fill:#E03131;}
	.st21{fill:#FF6B6B;}
</style>
<g>
	<polygon class="st10" points="55.96,28.76 55.96,66.5 88.87,71.76 61.35,6.36 	"/>
	<polygon class="st10" points="38.29,57.99 34.39,30.83 34.39,11.75 49.74,30.83 55.96,47.21 55.96,55.3 	"/>
	<polygon class="st11" points="11.44,86.14 10.47,99.14 14.63,99.14 	"/>
	<polygon class="st10" points="29.41,133.08 70.06,105.5 35.44,103.21 	"/>
	<polygon class="st12" points="70.06,105.5 94.54,133.08 96.61,180.58 62.6,163.57 36.67,188.25 29.41,133.08 	"/>
	<polygon class="st13" points="62.6,163.57 94.54,133.08 96.61,180.58 	"/>
	<polygon class="st11" points="35.44,103.21 21.74,134.12 36.67,188.25 29.41,133.08 	"/>
	<polygon class="st11" points="36.67,188.25 54.86,188.25 62.6,163.57 	"/>
	<polygon class="st12" points="62.6,163.57 54.86,188.25 53.06,193.64 118.39,191.36 96.61,180.58 	"/>
	<polygon class="st13" points="118.39,191.36 162.57,130.59 129.38,68.37 96.26,172.49 96.61,180.58 	"/>
	<polygon class="st10" points="162.57,130.59 189.53,39.06 129.38,68.37 	"/>
	<polygon class="st14" points="189.53,39.06 124.2,62.15 95.87,163.57 96.26,172.49 129.38,68.37 	"/>
	<polygon class="st11" points="47.53,56.58 44.59,32.11 34.39,16.45 34.39,30.83 38.29,57.99 	"/>
	<polygon class="st11" points="59.54,67.07 63.85,31.87 67.81,21.7 88.87,71.76 	"/>
	<polygon class="st12" points="11.44,86.14 15.31,101.89 70.06,105.5 88.87,71.76 45.73,50.19 	"/>
	<polygon class="st13" points="88.87,71.76 63.15,99.14 20.84,102.25 70.06,105.5 	"/>
	<polygon class="st11" points="94.54,133.08 82.96,173.75 96.61,180.58 	"/>
</g>
</svg>
