<?xml version="1.0" encoding="utf-8"?>
<!-- Generator: Adobe Illustrator 27.0.1, SVG Export Plug-In . SVG Version: 6.00 Build 0)  -->
<svg version="1.1" xmlns="http://www.w3.org/2000/svg" xmlns:xlink="http://www.w3.org/1999/xlink" x="0px" y="0px"
	 viewBox="0 0 200 150.7" style="enable-background:new 0 0 200 150.7;" xml:space="preserve">
<style type="text/css">
	.st0{fill:#19696A;}
	.st1{fill:#8CD3D4;}
	.st2{fill:#3F3F3F;}
	.st3{fill:#A0A0A0;}
	.st4{fill:#9B8787;}
	.st5{fill:#1D1D1B;}
	.st6{fill:#111E28;stroke:#1D1D1B;stroke-width:0.75;stroke-miterlimit:10;}
	.st7{fill:#6D9CC6;}
	.st8{fill:#6D9CC6;stroke:#1D1D1B;stroke-width:0.75;stroke-miterlimit:10;}
	.st9{fill:#A7EFF0;}
	.st10{fill:#A0E4CB;}
	.st11{fill:#59C1BD;}
	.st12{fill:#3C9E97;}
	.st13{fill:#CFF5E7;}
	.st14{fill:#7AC4A6;}
	.st15{fill:#75CCBE;}
	.st16{fill:#FFD8A8;}
	.st17{fill:#FD7E14;}
	.st18{fill:#FFC078;}
	.st19{fill:#FFA94D;}
	.st20{fill:#EF923F;}
	.st21{fill:#C92A2A;}
	.st22{fill:#FFC9C9;}
	.st23{fill:#FA5252;}
	.st24{fill:#FF8787;}
	.st25{fill:#F03E3E;}
	.st26{fill:#E03131;}
	.st27{fill:#FF6B6B;}
	.st28{fill:none;stroke:#BB8B8B;stroke-miterlimit:10;}
	.st29{fill:none;stroke:#B78989;stroke-miterlimit:10;}
	.st30{fill:none;stroke:#BF8E8E;stroke-miterlimit:10;}
	.st31{fill:none;stroke:#B38787;stroke-miterlimit:10;}
	.st32{fill:#E36BAE;}
	.st33{fill:#CC54A1;}
	.st34{fill:#BF4B9C;}
	.st35{fill:#B34180;}
	.st36{fill:#F8A1D1;}
	.st37{fill:#822659;}
	.st38{fill:#ED85C3;}
	.st39{fill:#DD85B9;}
	.st40{fill:#9B3270;}
	.st41{fill:#EFCF8F;}
	.st42{fill:#A44A4A;}
	.st43{fill:#DD8968;}
	.st44{fill:#E5B580;}
	.st45{fill:#E2AA79;}
	.st46{fill:#B2664F;}
	.st47{fill:#C6745C;}
	.st48{fill:#C8B6E2;}
	.st49{fill:#495C83;}
	.st50{fill:#7A86B6;}
	.st51{fill:#A8A4CE;}
	.st52{fill:#A9D2FF;}
	.st53{fill:#5D46C1;}
	.st54{fill:#7984EE;}
	.st55{fill:#88C0F2;}
	.st56{fill:#69ADE0;}
	.st57{fill:#779BE0;}
	.st58{fill:#6170DB;}
	.st59{display:none;}
</style>
<g id="레이어_3">
</g>
<g id="Layer_1">
	<g>
		<polygon class="st32" points="116.2,22.6 98.8,12.4 67.8,15.2 57.2,23.3 44.4,40 44.4,97.7 121.7,84.2 121.8,81.4 		"/>
		<polygon class="st33" points="116.2,22.6 138.5,31.9 163.5,88 121.8,81.4 		"/>
		<polygon class="st34" points="151.2,60.3 137.7,83.6 163.5,88 		"/>
		<polygon class="st35" points="44.4,40 56.2,36 58.8,33.5 57.2,23.3 		"/>
		<polygon class="st36" points="121.8,81.4 56.2,36 44.4,40 44.4,97.7 121.7,84.2 		"/>
		<polygon class="st33" points="149.9,57.4 173.8,34.4 186.9,34.4 163.5,88 		"/>
		<polygon class="st37" points="183.6,41.9 200,50.9 186.4,35.5 		"/>
		<polygon class="st36" points="186.9,34.4 200,50.9 186.4,35.5 		"/>
		<polygon class="st35" points="154,53.4 146.7,50.3 149.9,57.4 		"/>
		<polygon class="st37" points="154,53.4 142.4,28.1 101.4,5.4 85.1,0 80.7,14.1 98.8,12.4 116.2,22.6 138.5,31.9 146.7,50.3 		"/>
		<polygon class="st32" points="142.4,28.1 134.5,30.2 116.2,22.6 109.6,18.8 101.4,5.4 		"/>
		<polygon class="st32" points="117.3,84.9 118.2,88.5 107.2,111.9 107.2,125.6 118.2,145.3 91.1,149.1 12.8,84.9 41.2,66.8 
			44.4,97.7 		"/>
		<polygon class="st35" points="44.4,97.7 40,53.8 44.4,40 		"/>
		<polygon class="st38" points="44.4,70.9 113.2,85.6 44.4,97.7 		"/>
		<polygon class="st33" points="107.2,125.6 91.1,149.1 118.2,145.3 		"/>
		<polygon class="st36" points="113.9,97.7 112.1,116.8 114.9,139.4 107.2,125.6 107.2,111.9 		"/>
		<polygon class="st37" points="115.4,94.6 114.9,113.4 124.1,132.8 113.3,126.2 112.1,116.8 113.9,97.7 		"/>
		<polygon class="st36" points="118.2,88.5 117.3,110.8 124.1,132.8 114.9,113.4 115.4,94.6 		"/>
		<polygon class="st37" points="71.2,132.8 63.1,132.8 12.8,84.9 		"/>
		<polygon class="st33" points="63.1,132.8 45.5,150.7 10.5,119.4 3.4,69.9 11.9,66.8 12.8,84.9 		"/>
		<polygon class="st34" points="45.5,150.7 15.5,146.9 10.5,119.4 		"/>
		<polygon class="st34" points="11.9,66.8 40.3,56.5 41.2,66.8 12.8,84.9 		"/>
		<polygon class="st32" points="3.4,69.9 0,50.9 43.3,10.8 65.5,17 57.2,23.3 44.4,40 40,53.8 40.3,56.5 		"/>
		<polygon class="st36" points="57.2,23.3 43.3,10.8 65.5,17 		"/>
		<polygon class="st39" points="42.2,46.9 43.3,10.8 57.2,23.3 44.4,40 		"/>
		<polygon class="st36" points="116.2,22.6 135.8,34.4 163.5,88 138.5,31.9 		"/>
		<polygon class="st32" points="150.2,62.1 151.2,60.3 163.5,88 		"/>
		<polygon class="st40" points="45.5,150.7 44.4,115 63.1,132.8 		"/>
	</g>
</g>
<g id="Layer_2" class="st59">
</g>
</svg>
