<?xml version="1.0" encoding="utf-8"?>
<!-- Generator: Adobe Illustrator 27.0.1, SVG Export Plug-In . SVG Version: 6.00 Build 0)  -->
<svg version="1.1" xmlns="http://www.w3.org/2000/svg" xmlns:xlink="http://www.w3.org/1999/xlink" x="0px" y="0px"
	 viewBox="0 0 154.2 200" style="enable-background:new 0 0 154.2 200;" xml:space="preserve">
<style type="text/css">
	.st0{fill:#19696A;}
	.st1{fill:#8CD3D4;}
	.st2{fill:#3F3F3F;}
	.st3{fill:#A0A0A0;}
	.st4{fill:#9B8787;}
	.st5{fill:#1D1D1B;}
	.st6{fill:#111E28;stroke:#1D1D1B;stroke-width:0.75;stroke-miterlimit:10;}
	.st7{fill:#6D9CC6;}
	.st8{fill:#6D9CC6;stroke:#1D1D1B;stroke-width:0.75;stroke-miterlimit:10;}
	.st9{fill:#A7EFF0;}
	.st10{fill:#A0E4CB;}
	.st11{fill:#59C1BD;}
	.st12{fill:#3C9E97;}
	.st13{fill:#CFF5E7;}
	.st14{fill:#7AC4A6;}
	.st15{fill:#75CCBE;}
	.st16{fill:#FFD8A8;}
	.st17{fill:#FD7E14;}
	.st18{fill:#FFC078;}
	.st19{fill:#FFA94D;}
	.st20{fill:#EF923F;}
	.st21{fill:#C92A2A;}
	.st22{fill:#FFC9C9;}
	.st23{fill:#FA5252;}
	.st24{fill:#FF8787;}
	.st25{fill:#F03E3E;}
	.st26{fill:#E03131;}
	.st27{fill:#FF6B6B;}
	.st28{fill:none;stroke:#BB8B8B;stroke-miterlimit:10;}
	.st29{fill:none;stroke:#B78989;stroke-miterlimit:10;}
	.st30{fill:none;stroke:#BF8E8E;stroke-miterlimit:10;}
	.st31{fill:none;stroke:#B38787;stroke-miterlimit:10;}
	.st32{fill:#E36BAE;}
	.st33{fill:#CC54A1;}
	.st34{fill:#BF4B9C;}
	.st35{fill:#B34180;}
	.st36{fill:#F8A1D1;}
	.st37{fill:#822659;}
	.st38{fill:#ED85C3;}
	.st39{fill:#DD85B9;}
	.st40{fill:#9B3270;}
	.st41{fill:#EFCF8F;}
	.st42{fill:#A44A4A;}
	.st43{fill:#DD8968;}
	.st44{fill:#E5B580;}
	.st45{fill:#E2AA79;}
	.st46{fill:#B2664F;}
	.st47{fill:#C6745C;}
	.st48{fill:#C8B6E2;}
	.st49{fill:#495C83;}
	.st50{fill:#7A86B6;}
	.st51{fill:#A8A4CE;}
	.st52{fill:#A9D2FF;}
	.st53{fill:#5D46C1;}
	.st54{fill:#7984EE;}
	.st55{fill:#88C0F2;}
	.st56{fill:#779BE0;}
	.st57{fill:#69ADE0;}
	.st58{fill:#6170DB;}
	.st59{fill:none;}
	.st60{fill:#4A6363;}
	.st61{fill:#895C5C;}
	.st62{fill:#A77979;}
	.st63{fill:#704F4F;}
	.st64{fill:#B58C8C;}
	.st65{fill:#C49F9F;}
	.st66{fill:#472D2D;}
	.st67{fill:#996B6B;}
	.st68{fill:#5B3F3F;}
	.st69{fill:#553939;}
	.st70{fill:#724747;}
	.st71{fill:#E3C2F9;}
	.st72{fill:#D89CF6;}
	.st73{fill:#916DD5;}
	.st74{fill:#5D499B;}
	.st75{fill:#C088E2;}
	.st76{fill:#6B54B5;}
	.st77{fill:#7D60C6;}
	.st78{fill:#3E206D;}
	.st79{fill:#E9D2FC;}
	.st80{fill:#DDA9FC;}
	.st81{fill:#EF9B59;}
	.st82{fill:#FEE785;}
	.st83{fill:#F7A76F;}
	.st84{fill:#A42127;}
	.st85{fill:#EFB773;}
	.st86{fill:#AF573C;}
	.st87{fill:#FFF0B3;}
	.st88{fill:#BC704A;}
	.st89{fill:#CE7F49;}
	.st90{fill:#CC6748;}
	.st91{fill:#DD8950;}
	.st92{fill:#E08B51;}
	.st93{fill:#FFEBB8;}
	.st94{fill:#DB8952;}
	.st95{fill:#B23838;}
	.st96{fill:#C83B3B;}
	.st97{fill:#C67B47;}
	.st98{fill:#AF3A2E;}
	.st99{fill:#932121;}
	.st100{fill:#F7AD7C;}
	.st101{fill:none;stroke:#F7AD7C;stroke-miterlimit:10;}
	.st102{opacity:0.9;fill:#FFFFFF;}
	.st103{opacity:0.9;fill:#FF9500;}
	.st104{opacity:0.9;fill:#FFA200;}
	.st105{opacity:0.9;fill:#FFD000;}
	.st106{opacity:0.9;fill:#FFC300;}
	.st107{opacity:0.9;fill:#FFB700;}
	.st108{opacity:0.9;fill:#FFEA00;}
	.st109{opacity:0.9;fill:#FF8800;}
	.st110{opacity:0.9;fill:#FF7B00;}
	.st111{opacity:0.9;fill:#FFF388;}
	.st112{opacity:0.9;fill:#FFE98D;}
	.st113{opacity:0.9;fill:#FF9C39;}
	.st114{opacity:0.9;fill:#FF6700;}
	.st115{opacity:0.9;fill:#FFF4A1;}
	.st116{opacity:0.9;fill:#FF5500;}
	.st117{fill:#206908;}
	.st118{fill:#ABEC90;}
	.st119{fill:#379801;}
	.st120{fill:#59C022;}
	.st121{fill:#41AE07;}
	.st122{fill:#7DD145;}
	.st123{fill:#1B5A00;}
	.st124{fill:#3BA204;}
	.st125{fill:#348D00;}
	.st126{fill:#4DB417;}
	.st127{fill:#57BB23;}
	.st128{display:none;}
</style>
<g id="레이어_3">
</g>
<g id="Layer_1">
	<g>
		<polygon class="st81" points="48.1,105.7 32.5,106.9 13.4,114.5 20.8,133.6 39.3,139.5 49.7,133.6 51,128.8 		"/>
		<polygon class="st82" points="48.1,105.7 44.8,102 28.2,103.8 13.4,114.5 32.5,106.9 		"/>
		<polygon class="st83" points="48.1,105.7 52.2,104 63.9,104.9 51,114.5 52,129.3 49.7,133.6 51,128.8 		"/>
		<polygon class="st84" points="60.1,107.6 52.6,116 52,129.3 51,114.5 		"/>
		<polygon class="st84" points="52.9,104.1 58.3,99 48.1,101.6 47.1,104.5 48.1,105.7 52.2,104 		"/>
		<polygon class="st82" points="58.3,99 56.7,98.4 45.4,100.8 44.8,102 47.1,104.5 48.1,101.6 		"/>
		<polygon class="st85" points="53.3,131.5 71.7,129.3 76.8,138 69.4,162.5 10.3,198.9 9.4,186.8 		"/>
		<polygon class="st82" points="69.4,162.5 35.3,154.2 9.4,186.8 10.3,198.9 		"/>
		<polygon class="st84" points="31.9,137.1 34.2,155.6 46.2,140.4 47.6,134.7 39.3,139.5 		"/>
		<polygon class="st86" points="33.1,147.2 9.4,175.2 9.9,186.1 34.2,155.6 		"/>
		<polygon class="st81" points="11.8,197.9 11.8,199.7 10.3,198.9 		"/>
		<polygon class="st87" points="11.8,199.7 1.4,200 0,196.8 9.8,192 10.3,198.9 		"/>
		<polygon class="st88" points="9.6,179.6 1.1,182.8 2.9,186.5 9.7,186.5 9.9,186.1 		"/>
		<polygon class="st89" points="69.5,129.5 67.6,124.1 52.4,119.6 52,129.3 49.7,133.6 47.6,134.7 46.2,140.4 53.3,131.5 		"/>
		<polygon class="st90" points="60.7,122.1 87.1,91.2 117.7,86.3 64.5,123.2 		"/>
		<polygon class="st81" points="62,120.6 52.4,119.6 60.7,122.1 		"/>
		<polygon class="st81" points="60.7,120.5 83.9,87.2 114.6,79.9 115.9,80.9 114.4,86.8 87.1,91.2 62,120.6 		"/>
		<polygon class="st91" points="83.9,87.2 87.1,91.2 62,120.6 60.7,120.5 		"/>
		<polygon class="st92" points="114.4,86.8 115.9,80.9 115.9,79.9 120.2,78.6 117.7,86.3 		"/>
		<polygon class="st93" points="117.7,86.3 145.6,0 152.9,1.8 154.2,24.5 132.4,82.7 122.1,86.3 		"/>
		<polygon class="st89" points="122.1,86.3 118.7,87.7 98.3,105.2 98.3,146.6 99.8,148.3 101.7,147.2 		"/>
		<polygon class="st81" points="54.9,171.4 58.3,172.8 98.3,146.6 98.3,105.2 118.7,87.7 122.1,86.3 117.7,86.3 64.5,123.2 
			67.6,124.1 69.5,129.5 71.7,129.3 76.8,138 69.4,162.5 		"/>
		<polygon class="st94" points="100.7,147.8 127.5,166.7 124.5,85.5 122.1,86.3 101.7,147.2 		"/>
		<polygon class="st95" points="127.3,161.3 129,157.3 124.5,85.5 		"/>
		<polygon class="st96" points="124.5,85.5 129.6,94.9 125.7,105.3 		"/>
		<polygon class="st90" points="124.5,85.5 132.4,82.7 133.3,82.4 129.2,94.1 		"/>
		<polygon class="st81" points="126.9,166.2 109.3,182.7 105.5,174.5 113,156.4 		"/>
		<polygon class="st97" points="109.1,182.2 100.9,181.6 100.3,179.9 100.3,178.3 106.5,176.7 		"/>
		<polygon class="st94" points="107.5,178.9 100.9,181.6 109.1,182.2 		"/>
		<polygon class="st98" points="108.3,153.1 99.4,165.4 94.8,162.5 100.7,147.8 		"/>
		<polygon class="st99" points="95.1,161.8 93.7,160.3 99.3,147.8 99.8,148.3 100.7,147.8 		"/>
		<polygon class="st86" points="98.8,165 92.9,170.1 90.1,166.7 94.7,161.3 95.1,161.8 94.8,162.5 		"/>
		<polygon class="st84" points="93.9,160.6 91.7,162 89.4,166.3 90.1,166.7 94.7,161.3 		"/>
		<polygon class="st98" points="98.8,147.1 92,159.6 92,161.7 93.9,160.6 93.7,160.3 99.3,147.8 		"/>
		<polygon class="st81" points="67.5,163.6 65.6,168.1 58.3,172.8 54.9,171.4 		"/>
		<polygon class="st100" points="126.7,58.4 150.2,35.3 132.4,82.7 124.5,85.5 122.1,86.3 117.7,86.3 		"/>
	</g>
</g>
<g id="Layer_2" class="st128">
</g>
</svg>
