<?xml version="1.0" encoding="utf-8"?>
<!-- Generator: Adobe Illustrator 27.0.1, SVG Export Plug-In . SVG Version: 6.00 Build 0)  -->
<svg version="1.1" id="Layer_1" xmlns="http://www.w3.org/2000/svg" xmlns:xlink="http://www.w3.org/1999/xlink" x="0px" y="0px"
	 viewBox="0 0 395.1 279.4" style="enable-background:new 0 0 395.1 279.4;" xml:space="preserve">
<style type="text/css">
	.st0{fill:#E29A9A;}
	.st1{fill:#F7F4F0;}
	.st2{fill:#F0A8A7;}
	.st3{fill:#FCB9B9;}
</style>
<g id="Layer_2_00000101814320939276942090000000181364060325614236_">
	<g>
		<rect class="st0" width="395.1" height="279.4"/>
		<rect x="35.3" y="30.9" class="st1" width="324.5" height="236"/>
		<polygon class="st2" points="10.1,0 21.5,35.5 201.5,150.8 0,279.4 0,0 		"/>
		<polygon class="st2" points="385.1,0 373.7,35.5 184.2,153.2 395.1,279.4 395.1,0 		"/>
		<path class="st3" d="M0,279.4l182.1-138.2c0,0,14.7-12.6,30.4,0c11.1,9.7,182.6,138.2,182.6,138.2H0z"/>
		<path class="st0" d="M212.6,159.5c-15.7,11.7-30.4,0-30.4,0L0,30.9V0h395.1v30.9C395.1,30.9,223.6,150.5,212.6,159.5z"/>
	</g>
</g>
</svg>
