<?xml version="1.0" encoding="utf-8"?>
<!-- Generator: Adobe Illustrator 27.0.1, SVG Export Plug-In . SVG Version: 6.00 Build 0)  -->
<svg version="1.1" id="Layer_1" xmlns="http://www.w3.org/2000/svg" xmlns:xlink="http://www.w3.org/1999/xlink" x="0px" y="0px"
	 viewBox="0 0 395.1 413.2" style="enable-background:new 0 0 395.1 413.2;" xml:space="preserve">
<style type="text/css">
	.st0{fill:#E29A9A;}
	.st1{fill:#F7F4F0;}
	.st2{fill:#F0A8A7;}
	.st3{fill:#FCB9B9;}
</style>
<g id="Layer_3">
	<g>
		<path class="st0" d="M212.6,5.2c-15.7-11.7-30.4,0-30.4,0L0,133.8v30.9h395.1v-30.9C395.1,133.8,223.6,14.2,212.6,5.2z"/>
		<rect y="133.8" class="st0" width="395.1" height="279.4"/>
		
			<rect x="39.3" y="109.3" transform="matrix(0.9948 -0.1017 0.1017 0.9948 -22.0712 21.6747)" class="st1" width="324.5" height="236"/>
		<polygon class="st2" points="10.1,133.8 21.4,169.3 201.5,284.6 0,413.2 0,133.8 		"/>
		<polygon class="st2" points="385.1,133.8 373.7,169.3 184.2,287.1 395.1,413.2 395.1,133.8 		"/>
		<path class="st3" d="M0,413.2L182.1,275c0,0,14.7-12.5,30.4,0c11.1,9.7,182.6,138.2,182.6,138.2H0z"/>
	</g>
</g>
</svg>
