<?xml version="1.0" encoding="utf-8"?>
<!-- Generator: Adobe Illustrator 27.0.1, SVG Export Plug-In . SVG Version: 6.00 Build 0)  -->
<svg version="1.1" xmlns="http://www.w3.org/2000/svg" xmlns:xlink="http://www.w3.org/1999/xlink" x="0px" y="0px"
	 viewBox="0 0 211 173.3" style="enable-background:new 0 0 211 173.3;" xml:space="preserve">
<style type="text/css">
	.st0{fill:#19696A;}
	.st1{fill:#8CD3D4;}
	.st2{fill:#3F3F3F;}
	.st3{fill:#A0A0A0;}
	.st4{fill:#9B8787;}
	.st5{fill:#1D1D1B;}
	.st6{fill:#111E28;stroke:#1D1D1B;stroke-width:0.75;stroke-miterlimit:10;}
	.st7{fill:#6D9CC6;}
	.st8{fill:#6D9CC6;stroke:#1D1D1B;stroke-width:0.75;stroke-miterlimit:10;}
	.st9{fill:#A7EFF0;}
	.st10{fill:#A0E4CB;}
	.st11{fill:#59C1BD;}
	.st12{fill:#3C9E97;}
	.st13{fill:#CFF5E7;}
	.st14{fill:#7AC4A6;}
	.st15{fill:#75CCBE;}
	.st16{fill:#FFD8A8;}
	.st17{fill:#FD7E14;}
	.st18{fill:#FFC078;}
	.st19{fill:#FFA94D;}
	.st20{fill:#EF923F;}
	.st21{fill:#C92A2A;}
	.st22{fill:#FFC9C9;}
	.st23{fill:#FA5252;}
	.st24{fill:#FF8787;}
	.st25{fill:#F03E3E;}
	.st26{fill:#E03131;}
	.st27{fill:#FF6B6B;}
	.st28{display:none;}
</style>
<g id="Layer_1">
	<g>
		<path class="st0" d="M61.8,60.3h-6.3V9.7V3.3l-2.9,5.9L35.1,45.3l-0.7,1.4v2v11.7H24L51.4,4l1.1-2.3h-2.7H31.1h-2l-0.8,1.7
			C28.2,3.6,28.1,3.8,28,4L0.3,60.9L0,61.6v1.6V77v2.3h2.2h32.2v9.9v2.2h2.3h16.5h2.4v-2.2v-9.9h6.3H64V77V62.7v-2.4H61.8z"/>
		<path class="st0" d="M205.8,60.3h-6.3V9.7V3.3l-2.9,5.9l-17.6,36.1l-0.7,1.4v2v11.7H168L195.4,4l1.1-2.3h-2.7h-18.7h-2l-0.8,1.7
			c-0.1,0.2-0.2,0.4-0.3,0.6l-27.7,56.9l-0.3,0.7v1.6V77v2.3h2.2h32.2v9.9v2.2h2.3h16.5h2.4v-2.2v-9.9h6.3h2.2V77V62.7v-2.4H205.8z"
			/>
		<g>
			<polygon class="st1" points="14.9,160.1 14.9,150.9 28.8,150.9 30,150.9 30,149.5 30,142 30,140.7 28.8,140.7 14.9,140.7 
				14.9,135.1 14.9,133.9 13.5,133.9 2.6,133.9 1.4,133.9 1.4,135.1 1.4,170 1.4,171.3 2.7,171.3 13.5,171.3 14.9,171.3 31.7,171.3 
				32.9,171.3 32.9,169.9 32.9,161.4 32.9,160.1 31.7,160.1 			"/>
			<polygon class="st1" points="31.2,131.9 32.5,131.9 32.5,130.6 32.5,122 32.5,120.7 31.2,120.7 1.4,120.7 0,120.7 0,122 0,130.6 
				0,131.9 1.4,131.9 			"/>
		</g>
		<path class="st1" d="M78.2,169.8l-8.7-17.4c2.1-1.6,3.6-3.5,4.7-5.8c1.1-2.3,1.6-4.9,1.6-7.7v-1.3c0-5.3-1.9-9.5-5.7-12.4
			c-3.8-3-9.1-4.4-15.9-4.4H38.7c0,0,0,0,0,0h-1.3v11.5h1.4v0h15.4c3,0,5.3,0.5,6.7,1.5c1.5,1,2.2,2.7,2.2,5c0,2.3-0.7,4-2.2,5
			c-1.5,1-3.7,1.5-6.7,1.5h-1.1c-0.4,0-0.7,0-1.1-0.1v-10.1c0,0,0,0,0,0h0v-1.3H38.7v1.3c0,0,0,0,0,0V170c0,0,0,0,0,0v1.3h13.2V170
			h0c0,0,0,0,0,0v-13.2c0.4,0,0.8,0.1,1.1,0.1h1.1c1.3,0,2.6-0.1,3.8-0.2l5.7,13.6l0.2,0.5l0.2,0.6h13l1.9,0L78.2,169.8z"/>
		<path class="st1" d="M121.6,169.8l-8.7-17.4c2.1-1.6,3.6-3.5,4.7-5.8c1.1-2.3,1.6-4.9,1.6-7.7v-1.3c0-5.3-1.9-9.5-5.7-12.4
			c-3.8-3-9.1-4.4-15.9-4.4H82.1c0,0,0,0,0,0h-1.3v11.5h1.4v0h15.4c3,0,5.3,0.5,6.7,1.5c1.5,1,2.2,2.7,2.2,5c0,2.3-0.7,4-2.2,5
			c-1.5,1-3.7,1.5-6.7,1.5h-1.1c-0.4,0-0.7,0-1.1-0.1v-10.1c0,0,0,0,0,0h0v-1.3H82.1v1.3c0,0,0,0,0,0V170c0,0,0,0,0,0v1.3h13.2V170
			h0c0,0,0,0,0,0v-13.2c0.4,0,0.8,0.1,1.1,0.1h1.1c1.3,0,2.6-0.1,3.8-0.2l5.7,13.6l0.2,0.5l0.2,0.6h13l1.9,0L121.6,169.8z"/>
		<path class="st1" d="M210.2,169.8l-8.7-17.4c2.1-1.6,3.6-3.5,4.7-5.8c1.1-2.3,1.6-4.9,1.6-7.7v-1.3c0-5.3-1.9-9.5-5.7-12.4
			c-3.8-3-9.1-4.4-15.9-4.4h-15.4c0,0,0,0,0,0h-1.3v11.5h1.4v0h15.4c3,0,5.3,0.5,6.7,1.5c1.5,1,2.2,2.7,2.2,5c0,2.3-0.7,4-2.2,5
			c-1.5,1-3.7,1.5-6.7,1.5h-1.1c-0.4,0-0.7,0-1.1-0.1v-10.1c0,0,0,0,0,0h0v-1.3h-13.2v1.3c0,0,0,0,0,0V170c0,0,0,0,0,0v1.3h13.2V170
			h0c0,0,0,0,0,0v-13.2c0.4,0,0.8,0.1,1.1,0.1h1.1c1.3,0,2.6-0.1,3.8-0.2l5.7,13.6l0.2,0.5l0.2,0.6h13l1.9,0L210.2,169.8z"/>
		<path class="st1" d="M164.9,134.4v26.2l-1.1,1l-11.1,9.9c-0.3,0.1-0.6,0.1-0.9,0.2v0.6H138l-0.9-0.8l-11-9.9l-1.1-1v-26.2H138
			v26.2h13.8v-6.7c0-0.3,0-0.6,0-1v-10.4c0-0.4,0-0.8,0-1.2v-8.8h-28.3v-11.7h28.3l1.9,2l10.1,10.5L164.9,134.4z"/>
		<path class="st1" d="M151.9,142.4v10.4c0,0.3,0,0.7,0,1v-12.6C151.8,141.6,151.9,142,151.9,142.4z"/>
		<path class="st1" d="M158.7,172.4l-1,0.9v-0.7C158.1,172.5,158.4,172.5,158.7,172.4z"/>
		<g>
			<path class="st1" d="M134.4,19.2L115,0.9L114,0H96.3l-1,0.9L76,19.2l-1.7,1.6v51.5l1.7,1.6l19.4,18.3l1,0.9H114l1-0.9l19.4-18.3
				l1.7-1.6V20.8L134.4,19.2z M96.3,72.3V20.8H114v51.5H96.3z"/>
			<rect x="96.3" class="st0" width="17.7" height="20.8"/>
			<rect x="96.3" y="72.3" class="st0" width="17.7" height="20.8"/>
		</g>
	</g>
</g>
<g id="Layer_2" class="st28">
</g>
</svg>
