<svg width="335" height="48" viewBox="0 0 335 48" fill="none" xmlns="http://www.w3.org/2000/svg">
<rect width="335" height="48" fill="#FAE300"/>
<path d="M107.576 19.752V19.878C107.576 23.322 106.316 26.15 102.312 28.124L102.942 29.02C107.478 26.766 108.71 23.406 108.71 19.752H107.576ZM102.998 19.752V20.69H108.262V19.752H102.998ZM107.394 22.888L102.368 23.224L102.55 24.26L107.394 23.784V22.888ZM110.754 18.422V31.092H111.93V18.422H110.754ZM111.608 23.56V24.526H113.946V23.56H111.608ZM120.455 19.752V19.878C120.455 23.322 119.195 26.15 115.191 28.124L115.821 29.02C120.357 26.766 121.589 23.406 121.589 19.752H120.455ZM115.877 19.752V20.69H121.141V19.752H115.877ZM120.273 22.888L115.247 23.224L115.429 24.26L120.273 23.784V22.888ZM123.633 18.422V31.092H124.809V18.422H123.633ZM124.487 23.56V24.526H126.825V23.56H124.487ZM133.082 25.59V28.74H134.244V25.59H133.082ZM133.67 19.262C130.996 19.262 129.064 20.564 129.064 22.58C129.064 24.596 130.996 25.898 133.67 25.898C136.344 25.898 138.262 24.596 138.262 22.58C138.262 20.564 136.344 19.262 133.67 19.262ZM133.67 20.186C135.672 20.186 137.142 21.138 137.142 22.58C137.142 24.022 135.672 24.974 133.67 24.974C131.654 24.974 130.184 24.022 130.184 22.58C130.184 21.138 131.654 20.186 133.67 20.186ZM127.958 28.516V29.482H139.424V28.516H127.958ZM140.823 25.254V26.206H152.261V25.254H140.823ZM145.961 23.546V25.576H147.109V23.546H145.961ZM142.097 27.312V28.264H149.629V31.092H150.791V27.312H142.097ZM142.335 23.028V23.938H150.917V23.028H142.335ZM142.335 18.772V23.448H143.483V19.682H150.861V18.772H142.335ZM143.147 20.872V21.754H150.525V20.872H143.147ZM159.428 19.234C156.796 19.234 154.822 20.634 154.822 22.734C154.822 24.848 156.796 26.234 159.428 26.234C162.06 26.234 164.02 24.848 164.02 22.734C164.02 20.634 162.06 19.234 159.428 19.234ZM159.428 20.186C161.43 20.186 162.914 21.208 162.914 22.734C162.914 24.246 161.43 25.282 159.428 25.282C157.426 25.282 155.942 24.246 155.942 22.734C155.942 21.208 157.426 20.186 159.428 20.186ZM153.716 28.446V29.426H165.182V28.446H153.716ZM166.595 28.572V29.538H178.061V28.572H166.595ZM171.719 25.856V28.978H172.881V25.856H171.719ZM167.981 19.374V20.312H175.499V22.272H168.023V25.744H169.171V23.21H176.647V19.374H167.981ZM168.023 25.254V26.206H176.941V25.254H168.023ZM185.936 19.528V21.796C185.936 24.19 184.41 26.612 182.534 27.508L183.248 28.46C185.32 27.41 186.888 24.708 186.888 21.796V19.528H185.936ZM186.132 19.528V21.796C186.132 24.61 187.714 27.214 189.772 28.222L190.472 27.298C188.596 26.43 187.084 24.106 187.084 21.796V19.528H186.132ZM191.788 18.422V31.106H192.95V18.422H191.788ZM198.591 19.738V20.76C198.591 22.566 197.331 24.19 195.413 24.862L196.029 25.772C198.143 25.016 199.543 23.084 199.543 20.76V19.738H198.591ZM198.801 19.738V20.746C198.801 22.93 200.145 24.792 202.231 25.52L202.833 24.61C200.971 23.98 199.753 22.426 199.753 20.746V19.738H198.801ZM195.777 19.318V20.27H202.539V19.318H195.777ZM204.135 18.436V26.052H205.297V18.436H204.135ZM204.975 21.768V22.734H207.173V21.768H204.975ZM197.079 26.724V27.69H204.135V31.092H205.297V26.724H197.079ZM216.93 18.436V31.092H218.092V18.436H216.93ZM217.812 23.63V24.61H220.164V23.63H217.812ZM208.292 20.452V21.404H215.754V20.452H208.292ZM212.072 22.454C210.294 22.454 208.992 23.658 208.992 25.366C208.992 27.074 210.294 28.278 212.072 28.278C213.864 28.278 215.152 27.074 215.152 25.366C215.152 23.658 213.864 22.454 212.072 22.454ZM212.072 23.42C213.22 23.42 214.046 24.218 214.046 25.366C214.046 26.5 213.22 27.312 212.072 27.312C210.924 27.312 210.098 26.5 210.098 25.366C210.098 24.218 210.924 23.42 212.072 23.42ZM211.47 18.59V20.886H212.632V18.59H211.47ZM230.453 18.436V31.092H231.615V18.436H230.453ZM226.743 19.794V19.99C226.743 23.35 225.049 26.038 221.395 27.802L222.011 28.74C226.239 26.668 227.891 23.462 227.891 19.794H226.743ZM221.969 19.794V20.746H227.247V19.794H221.969Z" fill="black"/>
<path d="M27.8482 10.1919C19.3202 10.1919 12.4082 15.6559 12.4082 22.3999C12.4082 26.7919 15.3362 30.6319 19.7362 32.7839C19.4162 33.9919 18.5682 37.1519 18.4002 37.8319C18.1922 38.6719 18.7122 38.6639 19.0482 38.4319C19.3122 38.2559 23.2802 35.5599 24.9922 34.3919C25.9202 34.5279 26.8802 34.5999 27.8562 34.5999C36.3842 34.5999 43.2962 29.1359 43.2962 22.3919C43.2962 15.6559 36.3762 10.1919 27.8482 10.1919Z" fill="#391B1B"/>
</svg>
