<svg width="335" height="48" viewBox="0 0 335 48" fill="none" xmlns="http://www.w3.org/2000/svg">
<rect width="335" height="48" fill="#20C801"/>
<path d="M115.05 19.514V27.046H116.898V19.514H115.05ZM115.05 26.57V28.152H115.96C117.612 28.152 119.012 28.096 120.566 27.76L120.328 26.206C118.83 26.514 117.528 26.57 115.96 26.57H115.05ZM123.954 18.282V31.246H125.732V18.282H123.954ZM118.662 22.37V23.868H121.616V22.37H118.662ZM121.21 18.506V30.672H122.946V18.506H121.21ZM136.329 18.268V31.274H138.205V18.268H136.329ZM131.219 19.178C129.259 19.178 127.817 20.97 127.817 23.798C127.817 26.654 129.259 28.446 131.219 28.446C133.179 28.446 134.621 26.654 134.621 23.798C134.621 20.97 133.179 19.178 131.219 19.178ZM131.219 20.872C132.185 20.872 132.829 21.894 132.829 23.798C132.829 25.73 132.185 26.766 131.219 26.766C130.253 26.766 129.595 25.73 129.595 23.798C129.595 21.894 130.253 20.872 131.219 20.872ZM149.348 18.268V31.274H151.196V18.268H149.348ZM146.408 22.832V24.33H149.88V22.832H146.408ZM140.794 19.29V28.222H147.024V19.29H145.19V22.426H142.642V19.29H140.794ZM142.642 23.868H145.19V26.724H142.642V23.868ZM153.211 28.306V29.818H164.943V28.306H153.211ZM158.125 25.856V28.922H159.987V25.856H158.125ZM154.527 19.122V20.592H161.779V21.978H154.555V25.618H156.403V23.434H163.627V19.122H154.527ZM154.555 24.876V26.374H163.921V24.876H154.555ZM172.412 19.276V21.166C172.412 23.686 171.348 26.178 169.094 27.158L170.2 28.698C172.776 27.508 173.924 24.498 173.924 21.166V19.276H172.412ZM172.776 19.276V21.166C172.776 24.358 173.924 27.242 176.43 28.39L177.522 26.892C175.31 25.94 174.288 23.56 174.288 21.166V19.276H172.776ZM178.138 18.268V31.274H180.014V18.268H178.138ZM185.01 19.612V20.424C185.01 22.048 184.1 23.728 181.93 24.428L182.896 25.87C185.374 25.072 186.536 22.874 186.536 20.424V19.612H185.01ZM185.388 19.612V20.424C185.388 22.748 186.508 24.862 188.93 25.646L189.882 24.204C187.782 23.532 186.9 21.95 186.9 20.424V19.612H185.388ZM182.434 19.038V20.522H189.434V19.038H182.434ZM190.47 18.282V26.094H192.332V18.282H190.47ZM191.814 21.418V22.944H194.054V21.418H191.814ZM183.68 26.654V28.152H190.47V31.246H192.332V26.654H183.68ZM203.321 18.282V31.246H205.169V18.282H203.321ZM204.749 23.336V24.89H207.045V23.336H204.749ZM194.949 20.2V21.684H202.495V20.2H194.949ZM198.743 22.412C196.853 22.412 195.453 23.7 195.453 25.506C195.453 27.312 196.853 28.6 198.743 28.6C200.633 28.6 202.033 27.312 202.033 25.506C202.033 23.7 200.633 22.412 198.743 22.412ZM198.743 23.924C199.625 23.924 200.255 24.512 200.255 25.506C200.255 26.5 199.625 27.088 198.743 27.088C197.861 27.088 197.231 26.5 197.231 25.506C197.231 24.512 197.861 23.924 198.743 23.924ZM197.805 18.492V20.76H199.667V18.492H197.805ZM216.816 18.282V31.246H218.692V18.282H216.816ZM212.994 19.626V19.962C212.994 23.434 211.65 25.786 207.926 27.578L208.892 29.062C213.498 26.836 214.842 23.588 214.842 19.626H212.994ZM208.612 19.626V21.096H213.876V19.626H208.612Z" fill="white"/>
</svg>
